<?xml version="1.0" encoding="UTF-8"?><svg id="b" xmlns="http://www.w3.org/2000/svg" viewBox="0 0 1186.1 237.73"><path d="M638.88,73.06c-1.33-4.85-3.28-9.41-5.84-13.66-2.57-4.26-5.74-7.99-9.51-11.2-3.78-3.21-8.12-5.72-13.04-7.53-4.92-1.81-10.39-2.71-16.42-2.71-9.5,0-18,2.47-25.51,7.42-7.51,4.95-13.43,12.08-17.78,21.4-4.35,9.32-6.52,20.55-6.52,33.68s2.18,24.28,6.55,33.61c4.37,9.32,10.37,16.47,17.99,21.44,7.62,4.97,16.35,7.46,26.19,7.46,8.98,0,16.91-2,23.8-5.99,6.89-4,12.27-9.7,16.14-17.12,3.87-7.42,5.76-16.24,5.66-26.47l4.28,1.36h-46.74v-11.99h55.43v11.99c0,12.46-2.52,23.24-7.55,32.32-5.04,9.09-11.95,16.1-20.73,21.05-8.79,4.95-18.88,7.42-30.28,7.42-12.73,0-23.87-3.08-33.42-9.24-9.55-6.16-16.97-14.86-22.27-26.11-5.3-11.25-7.95-24.48-7.95-39.71,0-11.46,1.52-21.81,4.56-31.04,3.04-9.23,7.35-17.12,12.93-23.69,5.58-6.56,12.2-11.59,19.84-15.09,7.65-3.5,16.1-5.24,25.37-5.24,7.98,0,15.28,1.26,21.91,3.78,6.63,2.52,12.47,5.98,17.53,10.38,5.06,4.4,9.22,9.47,12.47,15.2,3.25,5.73,5.45,11.83,6.59,18.3h-13.68Z" fill="#fff" strokeWidth="0"/><path d="M722.11,175.8c-10.21,0-19.05-2.39-26.51-7.17-7.46-4.78-13.22-11.42-17.28-19.91-4.06-8.49-6.09-18.28-6.09-29.36s2.03-20.84,6.09-29.43c4.06-8.59,9.69-15.32,16.89-20.19,7.2-4.88,15.52-7.31,24.97-7.31,5.94,0,11.66,1.08,17.17,3.25,5.51,2.17,10.46,5.47,14.86,9.92,4.39,4.45,7.87,10.04,10.44,16.77,2.57,6.73,3.85,14.69,3.85,23.87v6.28h-85.5v-11.2h72.54c0-7.04-1.41-13.38-4.24-19.01-2.83-5.64-6.75-10.1-11.76-13.38-5.01-3.28-10.79-4.92-17.35-4.92-6.94,0-13.04,1.86-18.31,5.57-5.27,3.71-9.39,8.61-12.36,14.7-2.97,6.09-4.48,12.75-4.52,19.98v6.71c0,8.7,1.51,16.3,4.52,22.8,3.02,6.49,7.3,11.52,12.86,15.09,5.56,3.57,12.14,5.35,19.74,5.35,5.18,0,9.73-.81,13.64-2.43,3.92-1.62,7.22-3.79,9.9-6.53s4.71-5.74,6.09-9.03l12.04,3.92c-1.66,4.61-4.38,8.87-8.16,12.77-3.78,3.9-8.48,7.03-14.11,9.38-5.63,2.35-12.1,3.53-19.42,3.53Z" fill="#fff" strokeWidth="0"/><path d="M830.65,175.8c-9.45,0-17.8-2.4-25.04-7.21-7.25-4.8-12.91-11.45-16.99-19.94-4.09-8.49-6.13-18.3-6.13-29.43s2.04-21.11,6.13-29.65c4.08-8.54,9.75-15.2,16.99-19.98,7.24-4.78,15.59-7.17,25.04-7.17s17.79,2.4,25.01,7.21c7.22,4.8,12.88,11.46,16.99,19.98,4.11,8.51,6.16,18.38,6.16,29.61s-2.04,20.94-6.13,29.43c-4.09,8.49-9.75,15.14-16.99,19.94-7.24,4.8-15.59,7.21-25.04,7.21ZM830.65,164.17c7.6,0,14.04-2.04,19.31-6.14s9.27-9.54,12.01-16.34c2.73-6.8,4.1-14.29,4.1-22.48s-1.37-15.7-4.1-22.55c-2.73-6.85-6.73-12.34-12.01-16.48-5.27-4.14-11.71-6.21-19.31-6.21s-13.98,2.07-19.27,6.21c-5.3,4.14-9.31,9.63-12.04,16.48-2.73,6.85-4.1,14.37-4.1,22.55s1.36,15.67,4.1,22.48c2.73,6.8,6.73,12.25,12.01,16.34s11.71,6.14,19.31,6.14Z" fill="#fff" strokeWidth="0"/><path d="M900.33,173.52V63.93h12.33v16.84h.93c2.18-5.52,6-9.98,11.44-13.38,5.44-3.4,11.6-5.1,18.49-5.1,1.04,0,2.21.02,3.49.07,1.28.05,2.35.1,3.21.14v12.92c-.57-.09-1.57-.24-2.99-.43-1.43-.19-2.97-.29-4.63-.29-5.7,0-10.77,1.2-15.21,3.6-4.44,2.4-7.95,5.72-10.51,9.95-2.57,4.23-3.85,9.06-3.85,14.48v70.78h-12.68Z" fill="#fff" strokeWidth="0"/><path d="M1004.41,216.9c-7.46,0-13.99-.96-19.59-2.89-5.61-1.93-10.33-4.55-14.18-7.88-3.85-3.33-6.84-7.06-8.98-11.2l10.4-6.85c1.57,2.76,3.67,5.47,6.31,8.13,2.64,2.66,6.08,4.88,10.33,6.63,4.25,1.76,9.49,2.64,15.71,2.64,9.69,0,17.52-2.43,23.48-7.28,5.96-4.85,8.94-12.39,8.94-22.62v-24.69h-1.14c-1.47,3.33-3.59,6.65-6.34,9.95-2.75,3.31-6.35,6.05-10.79,8.24-4.44,2.19-9.94,3.28-16.5,3.28-8.74,0-16.5-2.16-23.26-6.49-6.77-4.33-12.09-10.52-15.96-18.59-3.87-8.06-5.81-17.68-5.81-28.86s1.89-20.83,5.67-29.25c3.78-8.42,9.06-14.98,15.85-19.69,6.79-4.71,14.7-7.06,23.73-7.06,6.7,0,12.25,1.18,16.67,3.53s7.97,5.27,10.65,8.74c2.68,3.47,4.79,6.85,6.31,10.13h1.28v-20.91h12.4v112.45c0,9.28-1.97,16.91-5.91,22.9-3.94,5.99-9.31,10.43-16.1,13.31s-14.51,4.32-23.16,4.32ZM1003.56,160.75c7.03,0,13.04-1.7,18.03-5.1,4.99-3.4,8.81-8.29,11.47-14.66,2.66-6.37,3.99-13.96,3.99-22.76s-1.31-16.16-3.92-22.8c-2.61-6.63-6.4-11.87-11.36-15.7-4.96-3.83-11.03-5.74-18.21-5.74s-13.49,1.97-18.53,5.92c-5.04,3.95-8.84,9.26-11.4,15.95-2.57,6.68-3.85,14.14-3.85,22.37s1.31,15.76,3.92,22.15c2.61,6.4,6.44,11.39,11.47,14.98,5.04,3.59,11.16,5.39,18.38,5.39Z" fill="#fff" strokeWidth="0"/><path d="M1121.01,175.8c-10.21,0-19.05-2.39-26.51-7.17-7.46-4.78-13.22-11.42-17.28-19.91-4.06-8.49-6.09-18.28-6.09-29.36s2.03-20.84,6.09-29.43c4.06-8.59,9.69-15.32,16.89-20.19,7.2-4.88,15.52-7.31,24.97-7.31,5.94,0,11.66,1.08,17.17,3.25,5.51,2.17,10.46,5.47,14.86,9.92,4.39,4.45,7.87,10.04,10.44,16.77,2.57,6.73,3.85,14.69,3.85,23.87v6.28h-85.5v-11.2h72.54c0-7.04-1.41-13.38-4.24-19.01-2.83-5.64-6.75-10.1-11.76-13.38-5.01-3.28-10.79-4.92-17.35-4.92-6.94,0-13.04,1.86-18.31,5.57-5.27,3.71-9.39,8.61-12.36,14.7-2.97,6.09-4.48,12.75-4.52,19.98v6.71c0,8.7,1.51,16.3,4.52,22.8,3.02,6.49,7.3,11.52,12.86,15.09,5.56,3.57,12.14,5.35,19.74,5.35,5.18,0,9.73-.81,13.64-2.43,3.92-1.62,7.22-3.79,9.9-6.53s4.71-5.74,6.09-9.03l12.04,3.92c-1.66,4.61-4.38,8.87-8.16,12.77-3.78,3.9-8.48,7.03-14.11,9.38-5.63,2.35-12.1,3.53-19.42,3.53Z" fill="#fff" strokeWidth="0"/><path d="M40.85,64.82H0V27.41h126.57v37.41h-40.84v108.55h-44.88v-108.55Z" fill="#eb0028" strokeWidth="0"/><path d="M133.54,27.41h122.87v37.41h-77.96v18.19h77.96v34.76h-77.96v18.19h77.98v37.41h-122.89V27.41Z" fill="#eb0028" strokeWidth="0"/><path d="M263.97,27.41h73.7c48.58,0,65.75,35.98,65.75,72.77,0,44.78-23.68,73.2-74.52,73.2h-64.93V27.41ZM308.88,135.97h17.56c27.98,0,32.07-22.7,32.07-36.41,0-9.18-2.87-34.73-35.34-34.73h-14.29v71.14Z" fill="#eb0028" strokeWidth="0"/><path d="M467.95,117.49l-13.7-22.75-13.36,22.75h-32.91l31.24-46-30.08-44h32.92l12.19,21.75,12.54-21.75h32.91l-30.07,44,31.24,46h-32.91Z" fill="#eb0028" strokeWidth="0"/></svg>