<?xml version="1.0" encoding="utf-8"?>
<svg version="1.1" id="Layer_1" xmlns="http://www.w3.org/2000/svg" xmlns:xlink="http://www.w3.org/1999/xlink" x="0px" y="0px"
	 viewBox="0 0 776 548.7" style="enable-background:new 0 0 776 548.7;" xml:space="preserve">
<style type="text/css">
	.st0{fill:#1C2B39;}
	.st1{fill:#FFFFFF;}
	.st2{fill:#C7911B;}
	.st3{fill:#122033;}
</style>
<g>
	<g>
		<path class="st0" d="M-725.2,843.4c-14.1,22.5-42.5,23.4-50.4,42.7c-1.9,4.7,55.6,12.9,79.4,10.8c20.1-1.8,42-12.9,53.3-31.4
			c14-23,16-46.4,7.4-79.5C-635.6,786-698.4,800.4-725.2,843.4z"/>
		<g>
			<path class="st1" d="M-722.3,845.2c-6.6,11.3-18.2,18.7-29.1,24.9c-8.1,4.8-16.1,9-19.9,17.5c0,0-0.1,0.2-0.1,0.2c0,0,0,0.1,0,0
				c0.7-1.2,0-3.4-0.5-3.8c-0.5-0.6-0.5-0.4-0.4-0.4c0.5,0.3,2,0.9,3.3,1.3c17.2,4.7,35.7,6.8,53.5,8.3c24,2.7,48.2-2.9,65-21.3
				c21.2-24.1,22-55.9,13.8-85.6c0,0,1.4,0.8,1.4,0.8c-4.3,1-8.7,2.4-12.9,3.9C-677.2,801.5-705.9,818.5-722.3,845.2L-722.3,845.2z
				 M-728.1,841.6c15.5-23.4,40.6-38.3,66.2-48.3c8.9-3.4,17.9-6.4,27.2-8.7c0,0,0.3,1.1,0.3,1.1c6.4,23.8,8.5,50.2-2.7,73
				c-10.2,23.8-34.4,39.1-59.9,41.6c-19,1.3-37.3-0.5-56-3.1c-6.9-1.1-14.1-2.1-21.1-4.6c-1.8-0.8-3.3-1.1-5-3.1
				c-0.7-0.6-1.6-3.1-1-4.7c0.1-0.3,0.3-0.7,0.4-1c1.7-4.1,4.6-7.9,7.8-10.8C-757.8,861.1-738.3,857.7-728.1,841.6L-728.1,841.6z"/>
		</g>
	</g>
	<g>
		<path class="st0" d="M-755.4,834.3c-13.9,27.9-42.6,47.1-18.6,51.8c31.6,6.2,69.7,17.1,94.3-7.7c49.5-49.9,16.8-122.8,16.6-123.5
			C-663.1,754.9-728.9,781-755.4,834.3z"/>
		<g>
			<path class="st1" d="M-752.4,835.8c-5.5,11.7-13.4,21.8-20.4,31.7c-2.3,3.4-4.9,6.9-5.9,10.6c-0.2,1-0.1,1.3,0,1.3
				c0.8,1,3.2,1.7,4.9,2.1c0,0,9,1.9,9,1.9c27.9,5.9,62.4,14.6,84.5-8.6c12.8-12.8,21.3-29.5,24.6-47.5c4.3-24.1,0.6-49.4-8.5-72
				c0,0,1.5,0.7,1.5,0.7c-9.4,3.9-18.6,8.9-27.3,14.3C-715.6,786.5-739.1,808.2-752.4,835.8L-752.4,835.8z M-758.4,832.8
				c14.8-28.2,40-49,67.1-64.8c9-5.2,18.2-10,27.8-14.1l1-0.4l0.4,1.1c13.8,34.4,17.2,76.1-2.6,109c-10.4,17.3-24.7,30.6-45.4,33.4
				c-22.1,3.2-44.3-2.4-65.7-6.5c-17.9-4.1-12.5-17.2-3.8-27.9C-772,852.8-764.1,843.6-758.4,832.8L-758.4,832.8z"/>
		</g>
	</g>
	<g>
		<path class="st0" d="M-787.5,829.6c-6.3,36.7-2.7,68,26.5,68.8c33.9,0.9,63.5-7.8,76-42.9c22.7-63.8-18.8-141.3-18.8-141.3
			S-775.5,759.5-787.5,829.6z"/>
		<g>
			<path class="st1" d="M-784.2,830.2c-2.3,17.8-5,41.1,5.8,55.8c5.5,7.4,15.1,8.3,24,8c22.2,0.2,46.5-6,59.2-25.6
				c24.4-39.4,14.6-94.3-1.5-135.3c-2.5-6.3-5.2-12.5-8.2-18.5l1.6,0.4c-10.1,6.6-19.5,14.4-28.3,22.8c-8.7,8.4-16.8,17.5-24,27.2
				C-769.7,784.3-780.5,806.5-784.2,830.2L-784.2,830.2z M-790.9,829c7-36.9,30.4-68.2,57.6-93c9.4-8.5,19.2-16.5,29.8-23.5
				c0,0,0.6,1.1,0.6,1.1c12.3,24.4,20.9,50.5,25.1,77.6c6,39.8-0.6,93.1-45.2,106.8c-13.7,4.4-27.7,5.5-42,4.6
				C-799.8,898.2-795.8,854.5-790.9,829L-790.9,829z"/>
		</g>
	</g>
	<g>
		<path class="st0" d="M-792.1,843.4c14.1,22.5,42.5,23.4,50.4,42.7c1.9,4.7-55.6,12.9-79.4,10.8c-20.1-1.8-42-12.9-53.3-31.4
			c-14-23-16-46.4-7.4-79.5C-881.7,786-818.9,800.4-792.1,843.4z"/>
		<g>
			<path class="st1" d="M-789.2,841.6c10.2,16.1,29.6,19.4,43.8,31.6c3.2,2.9,6.1,6.7,7.8,10.8c0.3,0.7,0.5,1.4,0.6,2.2
				c0,1.8-0.7,2.9-1.2,3.5c-1.7,2-3.2,2.3-5,3.1c-7,2.4-14.2,3.4-21.1,4.6c-18.6,2.6-37,4.4-56,3.1c-34.1-3.7-58.6-26-65.9-59.4
				c-4.2-18.7-1.1-38.1,3.6-56.3c9.3,2.2,18.3,5.3,27.2,8.7C-829.8,803.4-804.7,818.2-789.2,841.6L-789.2,841.6z M-795,845.2
				c-16.5-26.8-45.1-43.7-74.1-54.2c-4.3-1.5-8.6-2.9-12.9-3.9l1.3-0.8c-8.2,29.7-7.4,61.5,13.8,85.6c16.8,18.3,41,23.9,65,21.3
				c17.8-1.5,36.3-3.6,53.5-8.3c1.3-0.4,2.7-0.9,3.3-1.3c0.1,0,0.1-0.2-0.4,0.4c-0.5,0.4-1.1,2.6-0.5,3.8c0,0,0,0,0,0l-0.1-0.2
				c-3.8-8.4-11.8-12.7-19.9-17.5C-776.8,863.9-788.4,856.6-795,845.2L-795,845.2z"/>
		</g>
	</g>
	<g>
		<path class="st0" d="M-761.9,834.3c13.9,27.9,42.6,47.1,18.6,51.8c-31.6,6.2-69.7,17.1-94.3-7.7c-49.5-49.9-16.8-122.8-16.6-123.5
			C-854.2,754.9-788.4,781-761.9,834.3z"/>
		<g>
			<path class="st1" d="M-758.9,832.8c5.7,10.8,13.5,20,21.1,29.7c8.6,10.5,14.2,23.8-3.8,27.9c-21.4,4.1-43.6,9.8-65.7,6.5
				c-20.7-2.8-35-16.1-45.4-33.4c-19.8-32.9-16.4-74.6-2.6-109c0,0,0.4-1.1,0.4-1.1c10,4.2,19.5,9.1,28.9,14.5
				C-798.9,783.8-773.7,804.7-758.9,832.8L-758.9,832.8z M-765,835.8c-13.3-27.6-36.7-49.3-62.4-65.6c-8.7-5.4-17.8-10.4-27.3-14.3
				l1.5-0.7c-9.1,22.6-12.9,48-8.5,72c3.3,17.9,11.8,34.6,24.6,47.5c22.1,23.1,56.6,14.4,84.5,8.6c0,0,9-1.9,9-1.9
				c1.7-0.3,4.1-1.1,4.9-2.1c0.1-0.1,0.2-0.4,0-1.3c-1-3.7-3.6-7.1-5.9-10.6C-751.5,857.6-759.5,847.5-765,835.8L-765,835.8z"/>
		</g>
	</g>
	<g>
		<path class="st0" d="M-729.8,829.6c6.3,36.7,2.7,68-26.5,68.8c-33.9,0.9-63.5-7.8-76-42.9c-22.7-63.8,18.8-141.3,18.8-141.3
			S-741.8,759.5-729.8,829.6z"/>
		<g>
			<path class="st1" d="M-726.5,829c5,25.4,8.9,69.1-25.9,73.6c-14.4,0.9-28.3-0.2-42-4.6c-44.6-13.7-51.2-67-45.2-106.8
				c4.2-27,12.8-53.2,25.1-77.6c0,0,0.6-1.1,0.6-1.1c10.7,6.9,20.5,14.9,29.8,23.5C-756.8,760.8-733.5,792.1-726.5,829L-726.5,829z
				 M-733.1,830.2c-3.7-23.6-14.5-45.9-28.7-65.1c-7.2-9.7-15.3-18.8-24-27.2c-8.8-8.3-18.2-16.1-28.3-22.8l1.6-0.4
				c-3.1,6-5.7,12.2-8.2,18.5c-16,40.9-25.8,95.9-1.5,135.3c12.7,19.6,37,25.8,59.2,25.6c8.9,0.2,18.5-0.6,24-8
				C-728.1,871.3-730.9,848-733.1,830.2L-733.1,830.2z"/>
		</g>
	</g>
	<g>
		<path class="st0" d="M-810.7,842.5c2.9,37.1,23.7,54.4,52.9,54.4c29.2,0,49.3-17.4,52.9-54.4c6.4-67.4-52.9-132.4-52.9-132.4
			S-816.3,771.6-810.7,842.5z"/>
		<g>
			<path class="st1" d="M-807.4,842.3c2.2,26.2,16.2,47.9,43.9,49.9c27.5,2.7,47.2-11.4,53.4-38.7c8.9-38.3-5.7-78.1-25.5-110.8
				c-6.9-11.1-14.5-21.9-23.1-31.7l1.6,0c-16.2,17.9-29.2,38.9-38.5,61.2C-804.5,794.2-809.6,818.5-807.4,842.3L-807.4,842.3z
				 M-814.1,842.8c-1.5-25,4.6-49.7,15.1-72.2c7.6-16.8,17.5-32.4,28.6-47.1c3.9-5.2,8.1-10.3,12.6-15.1c0,0,0.8,0.9,0.8,0.9
				c25.7,30.2,46.9,65.7,53.8,105.1c3.9,26.2,1.9,58.5-20.7,76.3c-17,12.8-42,13.8-60.9,4.9C-804.6,886.1-813.3,863.5-814.1,842.8
				L-814.1,842.8z"/>
		</g>
	</g>
	<g>
		<g>
			<path class="st1" d="M-716.4,879.4c0.2,0.1-44.7,42.5-83.3-0.3c-4.6-5-9.4-14-10.8-20.7c-2-9.8-2-18.7-0.7-29.2
				c1.5-11.8,6.1-21.2,14.9-30c1.2-1.2,2.6-2.3,4-3.3c8.4-5.4,17.2-7.2,26.7-4.9c13.7,3.2,19.9,14.7,16.1,27.7
				c-0.9,3-1.4,5.6-0.7,8.6c0.1,0.4,0.1,0.9,0.1,1.3c-0.2,2.3-0.3,4.7-2.2,6.5c-0.3,0.3-0.7,0.8-1.2,0.6c-0.5-0.2-0.4-0.7-0.4-1.1
				c-0.2-2.2-0.7-4.3-1.7-6.3c-0.6-1.2-1.1-2.4-1.9-3.5c-0.8-1-2.6-1.8-2.6-1.8c-5.1-2-10.7-9.3-8.7-16.6c0.1-0.4,0.2-0.7,0.3-1.1
				c0.4-1.4-0.5-2.7-2-2.8c-4.5-0.4-8.8,0.6-12.4,3.1c-6.9,4.8-6.1,14.2-3.3,21.1c3.1,7.9,9.2,14.4,16.6,18.6
				c4.9,2.8,10.4,4.5,16,4.7c2.2,0.1,4.5-0.1,6.7-0.4c9.2-1.4,17.3-6.8,23.8-13.2c2.3-2.2,4.4-4.7,6.3-7.2c3.7-4.8,7.8-9.8,8.7-16.4
				c0,0,5.4,12.3,4.8,31.5C-703.8,863.4-716.4,879.4-716.4,879.4z"/>
			<path class="st1" d="M-749.8,797.7c1.3-0.4,2.2-1.3,3.1-2.1c6.3-5.8,10.2-13.1,12.2-21.4c0.1-0.3,0.1-0.5,0.1-0.8
				c0.2-3.5-5.2-3.9-5.8-0.5c-0.1,0.5-0.1,0.9-0.2,1.4c-1,8.5-3.9,16.2-9.4,22.8C-749.8,797.3-749.8,797.5-749.8,797.7z"/>
			<path class="st1" d="M-747.8,800.2c2.3-0.5,4.2-1.8,6-3.2c5-3.7,9.5-8,12.3-13.8c0.5-1,1-2,1.1-3.2c0.1-1.2-0.4-2.2-1.6-2.5
				c-1.2-0.3-2.2,0.1-2.7,1.2c-0.6,1.2-1.1,2.4-1.5,3.6c-2,5.9-6,10.4-10.4,14.7C-745.7,798.1-747,798.9-747.8,800.2z"/>
			<path class="st1" d="M-751.8,794.8c1-0.7,1.7-1.7,2.3-2.6c2.7-3.8,4.5-8.1,5.5-12.7c0.2-0.9,0.2-1.8,0.2-2.7
				c0-1.5-0.7-2.4-2.1-2.6c-1.4-0.2-2.3,0.7-2.7,1.9c-0.4,1.2-0.8,2.4-0.7,3.6c0.2,4.8-0.8,9.3-2.4,13.8
				C-751.9,793.8-752.2,794.2-751.8,794.8z"/>
			<path class="st1" d="M-747.2,802.8c2.3,0.2,4.1-0.5,6-1c4.2-1.2,8.4-2.7,11.8-5.6c0.7-0.6,1.2-1.2,1.8-1.9
				c0.7-0.9,0.6-1.9-0.2-2.8c-0.8-0.9-1.8-1.1-2.9-0.5c-1.1,0.7-2,1.5-2.8,2.4c-3.5,3.8-7.8,6.5-12.6,8.4c-0.2,0.1-0.4,0.2-0.6,0.3
				C-746.9,802.3-746.9,802.5-747.2,802.8z"/>
			<path class="st1" d="M-754.6,793.6c1.1-0.7,1.3-1.9,1.6-2.8c0.9-3.3,1.6-6.7,0.5-10.2c-0.4-1.3-1-2.3-2.4-2.1
				c-1.4,0.2-1.7,1.3-1.7,2.6c0,0.9,0,1.7,0.4,2.6C-754.9,786.8-754.2,790.1-754.6,793.6z"/>
		</g>
		<ellipse class="st0" cx="-753.2" cy="811.2" rx="1.9" ry="3.4"/>
	</g>
	<g>
		<path class="st0" d="M-858.9,928.6c-1,0.4-1.6,1-2,2c-0.4,1-0.5,2.6-0.5,4.9v44.1c0,2.3,0.2,3.9,0.5,4.9c0.4,1,1,1.7,2,2
			c1,0.4,2.5,0.6,4.7,0.7v1.8c-2.5-0.2-6.3-0.3-11.4-0.3c-4.8,0-8.6,0.1-11.3,0.3v-1.8c2.1-0.1,3.7-0.4,4.7-0.7c1-0.4,1.6-1,2-2
			c0.4-1,0.5-2.6,0.5-4.9v-21.3h-28.9v21.3c0,2.3,0.2,3.9,0.5,4.9c0.4,1,1,1.7,2,2c1,0.4,2.5,0.6,4.7,0.7v1.8
			c-2.7-0.2-6.5-0.3-11.3-0.3c-5.1,0-8.9,0.1-11.4,0.3v-1.8c2.1-0.1,3.7-0.4,4.7-0.7c1-0.4,1.6-1,2-2c0.4-1,0.5-2.6,0.5-4.9v-44.1
			c0-2.3-0.2-3.9-0.5-4.9c-0.4-1-1-1.7-2-2c-1-0.4-2.5-0.6-4.7-0.7v-1.8c2.5,0.2,6.3,0.3,11.4,0.3c4.7,0,8.5-0.1,11.3-0.3v1.8
			c-2.1,0.1-3.7,0.4-4.7,0.7s-1.6,1-2,2c-0.4,1-0.5,2.6-0.5,4.9v21h28.9v-21c0-2.3-0.2-3.9-0.5-4.9c-0.4-1-1-1.7-2-2
			c-1-0.4-2.5-0.6-4.7-0.7v-1.8c2.7,0.2,6.5,0.3,11.3,0.3c5.1,0,8.9-0.1,11.4-0.3v1.8C-856.3,928-857.9,928.2-858.9,928.6z"/>
		<path class="st0" d="M-844.7,986.9c-1.8-1.9-2.7-4.5-2.7-7.8c0-2.7,0.7-4.9,2.2-6.6c1.5-1.7,3.2-3.1,5.2-4.1c2-1,4.6-2.1,7.9-3.2
			c3.3-1.1,5.8-2.2,7.4-3.1c1.6-0.9,2.4-2.2,2.4-3.8v-5.5c0-3.4-0.7-5.8-2.2-7.1c-1.5-1.3-3.5-1.9-6.1-1.9c-4.2,0-7.1,1.1-8.8,3.2
			c1.2,0.3,2.2,0.9,3,1.9c0.8,0.9,1.2,2.1,1.2,3.6c0,1.5-0.5,2.7-1.4,3.5c-0.9,0.9-2.2,1.3-3.6,1.3c-1.7,0-2.9-0.5-3.7-1.6
			c-0.8-1-1.2-2.3-1.2-3.8c0-1.4,0.3-2.6,1-3.6c0.7-0.9,1.7-1.9,3.1-2.8c1.4-1,3.2-1.8,5.4-2.5c2.2-0.7,4.6-1,7.2-1
			c4.6,0,8.1,1.1,10.5,3.3c1.5,1.4,2.5,3,3,4.9c0.5,1.9,0.8,4.5,0.8,7.6v24.7c0,1.5,0.2,2.5,0.6,3.2c0.4,0.7,1.1,1,2.1,1
			c0.7,0,1.4-0.2,2-0.5c0.6-0.3,1.3-0.8,2-1.4l1,1.5c-1.5,1.2-2.9,2-4,2.5c-1.1,0.5-2.5,0.8-4.1,0.8c-2.8,0-4.8-0.7-6-2.1
			c-1.1-1.4-1.7-3.3-1.7-5.8c-1.8,3-3.8,5-6.1,6.2c-2.3,1.2-4.9,1.7-7.8,1.7C-840.2,989.7-842.9,988.8-844.7,986.9z M-822.5,979.4
			v-17.4c-0.5,0.8-1.3,1.5-2.2,2c-0.9,0.5-2.4,1.2-4.4,2.1c-2.3,0.9-4.1,1.9-5.5,2.7c-1.4,0.9-2.6,2-3.6,3.5c-1,1.5-1.5,3.4-1.5,5.7
			c0,2.7,0.7,4.7,2,6c1.3,1.4,3,2,5.2,2C-828.6,986.1-825.2,983.9-822.5,979.4z"/>
		<path class="st0" d="M-738.9,943.3v1.8c-1.2,0.2-2.3,0.7-3.3,1.6c-0.9,0.9-1.8,2.4-2.5,4.6l-12.9,38.2h-1.5l-14.1-35.7l-12.7,35.7
			h-1.5l-14.6-39.4c-0.8-2.1-1.7-3.4-2.5-4c-0.9-0.6-1.7-0.9-2.6-0.9v-1.9c2.3,0.4,4.9,0.5,7.8,0.5c3,0,6.8-0.2,11.6-0.5v1.9
			c-2.2,0-3.8,0.2-4.8,0.5c-1,0.4-1.5,1.3-1.5,2.8c0,1.1,0.3,2.5,0.9,4.2l8.9,25.6l12.8-35.3h2l13.6,35.9l8.4-25.4
			c0.5-1.6,0.8-2.9,0.8-4c0-1.4-0.5-2.5-1.5-3.1c-1-0.7-2.7-1.1-5.1-1.2v-1.8c3.1,0.2,5.6,0.3,7.5,0.3
			C-743,943.5-740.8,943.4-738.9,943.3z"/>
		<path class="st0" d="M-721.7,943.4h13.2v1.8h-13.2v34.4c0,2.7,0.5,4.6,1.5,5.8c1,1.2,2.4,1.8,4.2,1.8c1.8,0,3.4-0.7,4.7-2.2
			c1.3-1.5,2.4-3.9,3.3-7.3l1.8,0.4c-1.5,8.2-5.3,12.3-11.6,12.3c-2,0-3.7-0.2-5-0.7c-1.3-0.5-2.5-1.2-3.5-2.2
			c-1.3-1.3-2.2-2.9-2.7-4.8c-0.5-1.9-0.8-4.4-0.8-7.6v-29.8h-8.5v-1.8h8.5v-13.6c3.3-0.1,6-0.5,8-1.2V943.4z"/>
		<path class="st0" d="M-690.6,952.7c1.5-3.7,3.5-6.4,6.2-8.1c2.6-1.7,5.6-2.5,8.9-2.5c4.1,0,7.3,1.1,9.4,3.4
			c1.1,1.2,1.9,2.7,2.4,4.4c0.5,1.8,0.7,4.2,0.7,7.2v23.7c0,2.4,0.5,4.1,1.5,5c1,0.9,2.8,1.4,5.2,1.4v1.9c-5.5-0.2-9-0.4-10.7-0.4
			c-1.7,0-5,0.1-10,0.4v-1.9c2.2,0,3.7-0.5,4.6-1.4c0.9-0.9,1.3-2.6,1.3-5v-25.7c0-3.3-0.5-5.9-1.4-7.6c-0.9-1.7-2.9-2.6-5.8-2.6
			c-2.4,0-4.6,0.7-6.4,2c-1.9,1.4-3.3,3.3-4.4,5.7c-1.1,2.5-1.6,5.2-1.6,8.3v19.8c0,2.4,0.4,4.1,1.3,5c0.9,0.9,2.4,1.4,4.6,1.4v1.9
			c-5-0.2-8.3-0.4-10-0.4c-1.7,0-5.2,0.1-10.7,0.4v-1.9c2.5,0,4.2-0.5,5.2-1.4c1-0.9,1.5-2.6,1.5-5v-50.7c0-2.7-0.5-4.7-1.5-6
			c-1-1.2-2.8-1.9-5.2-1.9v-1.9c1.9,0.2,3.7,0.3,5.5,0.3c3.7,0,6.8-0.4,9.2-1.2V952.7z"/>
		<path class="st0" d="M-615.8,948c3.7,4,5.6,10.1,5.6,18.2c0,8.1-1.9,14.2-5.6,18.1c-3.7,4-8.6,6-14.6,6c-6,0-10.9-2-14.6-6
			c-3.7-4-5.6-10-5.6-18.1c0-8.1,1.9-14.2,5.6-18.2c3.7-4,8.6-6,14.6-6C-624.4,942-619.5,944-615.8,948z M-638.9,949.3
			c-2.1,3.6-3.1,9.3-3.1,16.9s1,13.3,3.1,16.9c2.1,3.6,4.9,5.4,8.4,5.4c3.6,0,6.4-1.8,8.4-5.4c2.1-3.6,3.1-9.2,3.1-16.9
			s-1-13.3-3.1-16.9c-2.1-3.6-4.9-5.5-8.4-5.5C-634,943.8-636.8,945.6-638.9,949.3z"/>
		<path class="st0" d="M-570,944.1c1.5,1.4,2.3,3,2.3,5c0,1.5-0.5,2.9-1.4,4c-0.9,1.1-2.1,1.6-3.7,1.6c-1.3,0-2.4-0.4-3.3-1.2
			c-0.9-0.8-1.4-2-1.4-3.4c0-2,1-3.6,3-4.8c-0.4-0.6-1-0.9-1.9-0.9c-2.3,0-4.4,0.9-6.3,2.7c-1.9,1.8-3.4,4-4.4,6.6s-1.6,5.1-1.6,7.4
			v18.9c0,2.7,0.8,4.6,2.4,5.7c1.6,1.1,3.9,1.6,7.1,1.6v1.9l-2.1-0.1c-6-0.2-9.9-0.3-11.6-0.3c-1.5,0-5,0.1-10.5,0.4v-1.9
			c2.5,0,4.2-0.5,5.2-1.4c1-0.9,1.5-2.6,1.5-5V953c0-2.7-0.5-4.7-1.5-6c-1-1.2-2.8-1.9-5.2-1.9v-1.9c1.9,0.2,3.7,0.3,5.5,0.3
			c3.7,0,6.8-0.4,9.2-1.2v11.1c1.1-3,2.8-5.6,5.1-7.9c2.3-2.3,4.9-3.5,7.8-3.5C-573.5,942-571.6,942.7-570,944.1z"/>
		<path class="st0" d="M-524.6,945.4c1.1,1.2,1.9,2.7,2.4,4.4c0.5,1.8,0.7,4.2,0.7,7.2v23.7c0,2.4,0.5,4.1,1.5,5
			c1,0.9,2.8,1.4,5.2,1.4v1.9c-5.5-0.2-9-0.4-10.7-0.4c-1.7,0-5,0.1-10,0.4v-1.9c2.2,0,3.7-0.5,4.6-1.4c0.9-0.9,1.3-2.6,1.3-5v-25.7
			c0-3.3-0.5-5.9-1.4-7.6c-0.9-1.7-2.9-2.6-5.8-2.6c-2.4,0-4.6,0.7-6.5,2.1c-1.9,1.4-3.4,3.4-4.4,5.8c-1,2.5-1.6,5.2-1.6,8.2v19.7
			c0,2.4,0.4,4.1,1.3,5c0.9,0.9,2.4,1.4,4.6,1.4v1.9c-5-0.2-8.3-0.4-10-0.4c-1.7,0-5.2,0.1-10.7,0.4v-1.9c2.5,0,4.2-0.5,5.2-1.4
			c1-0.9,1.5-2.6,1.5-5V953c0-2.7-0.5-4.7-1.5-6c-1-1.2-2.8-1.9-5.2-1.9v-1.9c1.9,0.2,3.7,0.3,5.5,0.3c3.7,0,6.8-0.4,9.2-1.2v10.5
			c1.5-3.8,3.5-6.5,6.2-8.2c2.6-1.7,5.6-2.5,8.9-2.5C-529.9,942-526.8,943.1-524.6,945.4z"/>
	</g>
	<g>
		<path class="st0" d="M-984.8,932.4c0,1.4,0,2.6,0.1,3.5h-1c-0.2-2.2-0.5-3.8-0.9-4.9c-0.3-1.1-0.9-1.8-1.8-2.3s-2.2-0.7-3.9-0.7
			h-2.3v24.3c0,1.2,0.1,2.1,0.3,2.6c0.2,0.5,0.6,0.9,1.2,1.1c0.6,0.2,1.5,0.3,2.8,0.4v0.9c-1.5-0.1-3.6-0.1-6.3-0.1
			c-2.8,0-4.9,0-6.3,0.1v-0.9c1.3-0.1,2.2-0.2,2.8-0.4c0.6-0.2,1-0.6,1.2-1.1c0.2-0.5,0.3-1.4,0.3-2.6V928h-2.3
			c-1.8,0-3.1,0.2-3.9,0.7s-1.4,1.3-1.8,2.3c-0.3,1.1-0.6,2.7-0.9,4.9h-1c0.1-0.9,0.1-2.1,0.1-3.5c0-1.6-0.1-3.4-0.3-5.5
			c2.4,0.1,6.4,0.1,12,0.1c5.6,0,9.6,0,12-0.1C-984.7,929-984.8,930.8-984.8,932.4z"/>
		<path class="st0" d="M-955,928.2c-0.5,0.2-0.8,0.5-1,1c-0.2,0.5-0.3,1.3-0.3,2.3v21.1c0,1.1,0.1,1.9,0.3,2.3c0.2,0.5,0.5,0.8,1,1
			c0.5,0.2,1.2,0.3,2.2,0.3v0.9c-1.2-0.1-3-0.1-5.5-0.1c-2.3,0-4.1,0-5.4,0.1v-0.9c1-0.1,1.8-0.2,2.2-0.3c0.5-0.2,0.8-0.5,1-1
			s0.3-1.3,0.3-2.3v-10.2H-974v10.2c0,1.1,0.1,1.9,0.3,2.3c0.2,0.5,0.5,0.8,1,1c0.5,0.2,1.2,0.3,2.2,0.3v0.9
			c-1.3-0.1-3.1-0.1-5.4-0.1c-2.4,0-4.3,0-5.5,0.1v-0.9c1-0.1,1.8-0.2,2.2-0.3c0.5-0.2,0.8-0.5,1-1c0.2-0.5,0.3-1.3,0.3-2.3v-21.1
			c0-1.1-0.1-1.9-0.3-2.3c-0.2-0.5-0.5-0.8-1-1c-0.5-0.2-1.2-0.3-2.2-0.3V927c1.2,0.1,3,0.1,5.5,0.1c2.3,0,4.1,0,5.4-0.1v0.9
			c-1,0.1-1.8,0.2-2.2,0.3c-0.5,0.2-0.8,0.5-1,1c-0.2,0.5-0.3,1.3-0.3,2.3v10.1h13.9v-10.1c0-1.1-0.1-1.9-0.3-2.3
			c-0.2-0.5-0.5-0.8-1-1c-0.5-0.2-1.2-0.3-2.2-0.3V927c1.3,0.1,3.1,0.1,5.4,0.1c2.4,0,4.3,0,5.5-0.1v0.9
			C-953.8,927.9-954.5,928-955,928.2z"/>
		<path class="st0" d="M-927,957.2c-1.9-0.1-5.2-0.1-9.8-0.1c-5.5,0-9.6,0-12.4,0.1v-0.9c1-0.1,1.8-0.2,2.2-0.3c0.5-0.2,0.8-0.5,1-1
			c0.2-0.5,0.3-1.3,0.3-2.3v-21.1c0-1.1-0.1-1.9-0.3-2.3c-0.2-0.5-0.5-0.8-1-1c-0.5-0.2-1.2-0.3-2.2-0.3V927
			c2.8,0.1,6.9,0.1,12.4,0.1c4.2,0,7.1,0,8.9-0.1c-0.2,1.9-0.3,3.6-0.3,5c0,1.1,0,2,0.1,2.6h-1c-0.2-1.8-0.5-3.2-0.8-4.1
			c-0.3-0.9-0.8-1.5-1.6-2c-0.7-0.4-1.9-0.6-3.4-0.6h-3.5c-1,0-1.8,0.1-2.2,0.2c-0.5,0.2-0.8,0.5-1,1c-0.2,0.5-0.3,1.3-0.3,2.3v10.1
			h2.8c1,0,1.8-0.2,2.3-0.7c0.5-0.5,0.9-1,1.1-1.7c0.2-0.6,0.3-1.4,0.4-2.4l0.1-0.9h1c-0.1,1.2-0.1,2.5-0.1,4v2
			c0,1.4,0.1,3.5,0.3,6.1h-1c0-0.2-0.1-0.9-0.3-2.1c-0.1-1.2-0.5-2.1-1.2-2.7c-0.6-0.6-1.5-0.9-2.7-0.9h-2.8v10.2
			c0,1.1,0.1,1.9,0.3,2.3c0.2,0.5,0.5,0.8,1,1c0.5,0.2,1.2,0.2,2.2,0.2h3.1c1.8,0,3.1-0.2,4-0.7c0.9-0.5,1.6-1.2,2-2.3
			c0.4-1,0.7-2.6,0.9-4.6h1c-0.1,0.8-0.1,1.8-0.1,3.1C-927.3,953.3-927.2,955.1-927,957.2z"/>
	</g>
	<g>
		<path class="st0" d="M-772.2,1001.8c1.2-0.3,2.7-0.4,4.3-0.4c2.6,0,4.3,0.5,5.4,1.7c0.8,0.8,1.2,1.8,1.2,3.1
			c0,1.9-1.4,3.6-3.4,4.3v0.1c1.4,0.3,4.2,1.6,4.2,4.8c0,1.6-0.6,2.7-1.4,3.6c-1.3,1.3-3.5,1.9-6.6,1.9c-1.5,0-2.7-0.1-3.6-0.2
			V1001.8z M-770.8,1010h3.3c3,0,4.7-1.7,4.7-3.7c0-2.9-2.4-3.7-5.2-3.7c-1.5,0-2.3,0.1-2.8,0.2V1010z M-770.8,1019.5
			c0.7,0.1,1.6,0.2,2.7,0.2c3,0,6.1-0.9,6.1-4.3c0-3-2.7-4.3-6-4.3h-2.9V1019.5z"/>
		<path class="st0" d="M-736.1,1010.9c0,6.6-4.7,10.1-9.7,10.1c-5.4,0-9.5-4.1-9.5-9.6c0-6,4.3-10.1,9.7-10.1
			C-739.9,1001.2-736.1,1005.4-736.1,1010.9z M-753.8,1011.3c0,4.5,3.1,8.6,8.1,8.6c5,0,8.2-3.8,8.2-8.9c0-4.1-2.7-8.6-8.1-8.6
			C-751.1,1002.4-753.8,1006.6-753.8,1011.3z"/>
		<path class="st0" d="M-728.3,1001.6v11c0,5.2,2.6,7.3,5.8,7.3c3.5,0,6.1-2.2,6.1-7.3v-11h1.4v10.9c0,6.2-3.5,8.5-7.5,8.5
			c-3.7,0-7.1-2.2-7.1-8.4v-11.1H-728.3z"/>
		<path class="st0" d="M-703.2,1002.7h-7.1v-1.2h15.6v1.2h-7.1v17.9h-1.4V1002.7z"/>
		<path class="st0" d="M-688.6,1001.6v19.1h-1.4v-19.1H-688.6z"/>
		<path class="st0" d="M-663.2,1023.3c-2.9-0.6-5.8-1.3-8.2-2c-0.4-0.1-0.8-0.3-1.2-0.3c-5.3-0.1-9.6-3.8-9.6-9.6
			c0-6.1,4.3-10.2,9.7-10.2c5.6,0,9.5,4.1,9.5,9.6c0,5.2-2.8,8.5-6.9,9.7v0.1c2.4,0.5,5.1,1,7.1,1.3L-663.2,1023.3z M-664.4,1011
			c0-4.1-2.7-8.6-8-8.6c-5.5,0-8.3,4.3-8.3,9c0,4.5,3.1,8.5,8.1,8.5C-667.6,1019.9-664.4,1016.1-664.4,1011z"/>
		<path class="st0" d="M-655.2,1001.6v11c0,5.2,2.6,7.3,5.8,7.3c3.5,0,6.1-2.2,6.1-7.3v-11h1.4v10.9c0,6.2-3.5,8.5-7.5,8.5
			c-3.7,0-7.1-2.2-7.1-8.4v-11.1H-655.2z"/>
		<path class="st0" d="M-624.2,1011.2h-8.5v8.3h9.5v1.2h-10.9v-19.1h10.4v1.2h-9v7.3h8.5V1011.2z"/>
		<path class="st0" d="M-605.8,1001.6v8.4h12v-8.4h1.4v19.1h-1.4v-9.6h-12v9.6h-1.4v-19.1H-605.8z"/>
		<path class="st0" d="M-566.8,1010.9c0,6.6-4.7,10.1-9.7,10.1c-5.4,0-9.5-4.1-9.5-9.6c0-6,4.3-10.1,9.7-10.1
			C-570.7,1001.2-566.8,1005.4-566.8,1010.9z M-584.6,1011.3c0,4.5,3.1,8.6,8.1,8.6c5,0,8.2-3.8,8.2-8.9c0-4.1-2.7-8.6-8.1-8.6
			C-581.8,1002.4-584.6,1006.6-584.6,1011.3z"/>
		<path class="st0" d="M-556.9,1002.7h-7.1v-1.2h15.6v1.2h-7.1v17.9h-1.4V1002.7z"/>
		<path class="st0" d="M-533.8,1011.2h-8.5v8.3h9.5v1.2h-10.9v-19.1h10.4v1.2h-9v7.3h8.5V1011.2z"/>
		<path class="st0" d="M-526.4,1001.6h1.4v17.9h9.5v1.2h-10.9V1001.6z"/>
	</g>
	<polygon class="st0" points="-784.1,1012.5 -1009.7,1011.6 -784.1,1010.7 -784.1,1012.5 	"/>
</g>
<g>
	<g>
		<path class="st2" d="M-707.2,428.3c-14.1,22.5-42.5,23.4-50.4,42.7c-1.9,4.7,55.6,12.9,79.4,10.8c20.1-1.8,42-12.9,53.3-31.4
			c14-23,16-46.4,7.4-79.5C-617.6,370.9-680.4,385.3-707.2,428.3z"/>
		<g>
			<path class="st1" d="M-704.3,430.1c-6.6,11.3-18.2,18.7-29.1,24.9c-8.1,4.8-16.1,9-19.9,17.5c0,0-0.1,0.2-0.1,0.2c0,0,0,0.1,0,0
				c0.7-1.2,0-3.4-0.5-3.8c-0.5-0.6-0.5-0.4-0.4-0.4c0.5,0.3,2,0.9,3.3,1.3c17.2,4.7,35.7,6.8,53.5,8.3c24,2.7,48.2-2.9,65-21.3
				c21.2-24.1,22-55.9,13.8-85.6c0,0,1.4,0.8,1.4,0.8c-4.3,1-8.7,2.4-12.9,3.9C-659.2,386.4-687.9,403.4-704.3,430.1L-704.3,430.1z
				 M-710.1,426.5c15.5-23.4,40.6-38.3,66.2-48.3c8.9-3.4,17.9-6.4,27.2-8.7c0,0,0.3,1.1,0.3,1.1c6.4,23.8,8.5,50.2-2.7,73
				c-10.2,23.8-34.4,39.1-59.9,41.6c-19,1.3-37.3-0.5-56-3.1c-6.9-1.1-14.1-2.1-21.1-4.6c-1.8-0.8-3.3-1.1-5-3.1
				c-0.7-0.6-1.6-3.1-1-4.7c0.1-0.3,0.3-0.7,0.4-1c1.7-4.1,4.6-7.9,7.8-10.8C-739.8,446-720.3,442.6-710.1,426.5L-710.1,426.5z"/>
		</g>
	</g>
	<g>
		<path class="st2" d="M-737.4,419.2c-13.9,27.9-42.6,47.1-18.6,51.8c31.6,6.2,69.7,17.1,94.3-7.7c49.5-49.9,16.8-122.8,16.6-123.5
			C-645.1,339.8-710.9,365.8-737.4,419.2z"/>
		<g>
			<path class="st1" d="M-734.4,420.7c-5.5,11.7-13.4,21.8-20.4,31.7c-2.3,3.4-4.9,6.9-5.9,10.6c-0.2,1-0.1,1.3,0,1.3
				c0.8,1,3.2,1.7,4.9,2.1c0,0,9,1.9,9,1.9c27.9,5.9,62.4,14.6,84.5-8.6c12.8-12.8,21.3-29.5,24.6-47.5c4.3-24.1,0.6-49.4-8.5-72
				c0,0,1.5,0.7,1.5,0.7c-9.4,3.9-18.6,8.9-27.3,14.3C-697.6,371.4-721.1,393.1-734.4,420.7L-734.4,420.7z M-740.4,417.7
				c14.8-28.2,40-49,67.1-64.8c9-5.2,18.2-10,27.8-14.1l1-0.4l0.4,1.1c13.8,34.4,17.2,76.1-2.6,109c-10.4,17.3-24.7,30.6-45.4,33.4
				c-22.1,3.2-44.3-2.4-65.7-6.5c-17.9-4.1-12.5-17.2-3.8-27.9C-754,437.7-746.1,428.5-740.4,417.7L-740.4,417.7z"/>
		</g>
	</g>
	<g>
		<path class="st2" d="M-769.5,414.5c-6.3,36.7-2.7,68,26.5,68.8c33.9,0.9,63.5-7.8,76-42.9c22.7-63.8-18.8-141.3-18.8-141.3
			S-757.5,344.4-769.5,414.5z"/>
		<g>
			<path class="st1" d="M-766.2,415.1c-2.3,17.8-5,41.1,5.8,55.8c5.5,7.4,15.1,8.3,24,8c22.2,0.2,46.5-6,59.2-25.6
				c24.4-39.4,14.6-94.3-1.5-135.3c-2.5-6.3-5.2-12.5-8.2-18.5l1.6,0.4c-10.1,6.6-19.5,14.4-28.3,22.8c-8.7,8.4-16.8,17.5-24,27.2
				C-751.7,369.2-762.5,391.4-766.2,415.1L-766.2,415.1z M-772.9,413.9c7-36.9,30.4-68.2,57.6-93c9.4-8.5,19.2-16.5,29.8-23.5
				c0,0,0.6,1.1,0.6,1.1c12.3,24.4,20.9,50.5,25.1,77.6c6,39.8-0.6,93.1-45.2,106.8c-13.7,4.4-27.7,5.5-42,4.6
				C-781.8,483-777.8,439.4-772.9,413.9L-772.9,413.9z"/>
		</g>
	</g>
	<g>
		<path class="st2" d="M-774.1,428.3c14.1,22.5,42.5,23.4,50.4,42.7c1.9,4.7-55.6,12.9-79.4,10.8c-20.1-1.8-42-12.9-53.3-31.4
			c-14-23-16-46.4-7.4-79.5C-863.7,370.9-800.9,385.3-774.1,428.3z"/>
		<g>
			<path class="st1" d="M-771.2,426.5c10.2,16.1,29.6,19.4,43.8,31.6c3.2,2.9,6.1,6.7,7.8,10.8c0.3,0.7,0.5,1.4,0.6,2.2
				c0,1.8-0.7,2.9-1.2,3.5c-1.7,2-3.2,2.3-5,3.1c-7,2.4-14.2,3.4-21.1,4.6c-18.6,2.6-37,4.4-56,3.1c-34.1-3.7-58.6-26-65.9-59.4
				c-4.2-18.7-1.1-38.1,3.6-56.3c9.3,2.2,18.3,5.3,27.2,8.7C-811.8,388.3-786.7,403.1-771.2,426.5L-771.2,426.5z M-777,430.1
				c-16.5-26.8-45.1-43.7-74.1-54.2c-4.3-1.5-8.6-2.9-12.9-3.9l1.3-0.8c-8.2,29.7-7.4,61.5,13.8,85.6c16.8,18.3,41,23.9,65,21.3
				c17.8-1.5,36.3-3.6,53.5-8.3c1.3-0.4,2.7-0.9,3.3-1.3c0.1,0,0.1-0.2-0.4,0.4c-0.5,0.4-1.1,2.6-0.5,3.8c0,0,0,0,0,0l-0.1-0.2
				c-3.8-8.4-11.8-12.7-19.9-17.5C-758.8,448.8-770.4,441.4-777,430.1L-777,430.1z"/>
		</g>
	</g>
	<g>
		<path class="st2" d="M-743.9,419.2c13.9,27.9,42.6,47.1,18.6,51.8c-31.6,6.2-69.7,17.1-94.3-7.7c-49.5-49.9-16.8-122.8-16.6-123.5
			C-836.2,339.8-770.4,365.8-743.9,419.2z"/>
		<g>
			<path class="st1" d="M-740.9,417.7c5.7,10.8,13.5,20,21.1,29.7c8.6,10.5,14.2,23.8-3.8,27.9c-21.4,4.1-43.6,9.8-65.7,6.5
				c-20.7-2.8-35-16.1-45.4-33.4c-19.8-32.9-16.4-74.6-2.6-109c0,0,0.4-1.1,0.4-1.1c10,4.2,19.5,9.1,28.9,14.5
				C-780.9,368.7-755.7,389.5-740.9,417.7L-740.9,417.7z M-747,420.7c-13.3-27.6-36.7-49.3-62.4-65.6c-8.7-5.4-17.8-10.4-27.3-14.3
				l1.5-0.7c-9.1,22.6-12.9,48-8.6,72c3.3,17.9,11.8,34.6,24.6,47.5c22.1,23.1,56.6,14.4,84.5,8.6c0,0,9-1.9,9-1.9
				c1.7-0.3,4.1-1.1,4.9-2.1c0.1-0.1,0.2-0.4,0-1.3c-1-3.7-3.6-7.1-5.9-10.6C-733.5,442.5-741.5,432.4-747,420.7L-747,420.7z"/>
		</g>
	</g>
	<g>
		<path class="st2" d="M-711.8,414.5c6.3,36.7,2.7,68-26.5,68.8c-33.9,0.9-63.5-7.8-76-42.9c-22.7-63.8,18.8-141.3,18.8-141.3
			S-723.8,344.4-711.8,414.5z"/>
		<g>
			<path class="st1" d="M-708.4,413.9c5,25.4,8.9,69.1-25.9,73.6c-14.4,0.9-28.3-0.2-42-4.6c-44.6-13.7-51.2-67-45.2-106.8
				c4.2-27,12.8-53.2,25.1-77.6c0,0,0.6-1.1,0.6-1.1c10.7,6.9,20.5,14.9,29.8,23.5C-738.8,345.7-715.5,377-708.4,413.9L-708.4,413.9
				z M-715.1,415.1c-3.7-23.6-14.5-45.9-28.7-65.1c-7.2-9.7-15.3-18.8-24-27.2c-8.8-8.3-18.2-16.1-28.3-22.8l1.6-0.4
				c-3.1,6-5.7,12.2-8.2,18.5c-16,40.9-25.8,95.9-1.5,135.3c12.7,19.6,37,25.8,59.2,25.6c8.9,0.2,18.5-0.6,24-8
				C-710.1,456.2-712.9,432.9-715.1,415.1L-715.1,415.1z"/>
		</g>
	</g>
	<g>
		<path class="st2" d="M-792.7,427.4c2.9,37.1,23.7,54.4,52.9,54.4c29.2,0,49.3-17.4,52.9-54.4c6.4-67.4-52.9-132.4-52.9-132.4
			S-798.3,356.5-792.7,427.4z"/>
		<g>
			<path class="st1" d="M-789.4,427.1c2.2,26.2,16.2,47.9,43.9,49.9c27.5,2.7,47.2-11.4,53.4-38.7c8.9-38.3-5.7-78.1-25.5-110.8
				c-6.9-11.1-14.5-21.9-23.1-31.7l1.6,0c-16.2,17.9-29.2,38.9-38.5,61.2C-786.5,379.1-791.6,403.3-789.4,427.1L-789.4,427.1z
				 M-796.1,427.7c-1.5-25,4.6-49.7,15.1-72.2c7.6-16.8,17.5-32.4,28.6-47.1c3.9-5.2,8.1-10.3,12.6-15.1c0,0,0.8,0.9,0.8,0.9
				c25.7,30.2,46.9,65.7,53.8,105.1c3.9,26.2,1.9,58.5-20.7,76.3c-17,12.8-42,13.8-60.9,4.9C-786.6,471-795.2,448.4-796.1,427.7
				L-796.1,427.7z"/>
		</g>
	</g>
	<g>
		<g>
			<path class="st1" d="M-698.4,464.3c0.2,0.1-44.7,42.5-83.3-0.3c-4.6-5-9.4-14-10.8-20.7c-2-9.8-2-18.7-0.7-29.2
				c1.5-11.8,6.1-21.2,14.9-30c1.2-1.2,2.6-2.3,4-3.3c8.4-5.4,17.2-7.2,26.7-4.9c13.7,3.2,19.9,14.7,16.1,27.7
				c-0.9,3-1.4,5.6-0.7,8.6c0.1,0.4,0.1,0.9,0.1,1.3c-0.2,2.3-0.3,4.7-2.2,6.5c-0.3,0.3-0.7,0.8-1.2,0.6c-0.5-0.2-0.4-0.7-0.4-1.1
				c-0.2-2.2-0.7-4.3-1.7-6.3c-0.6-1.2-1.1-2.4-1.9-3.5c-0.8-1-2.6-1.8-2.6-1.8c-5.1-2-10.7-9.3-8.7-16.6c0.1-0.4,0.2-0.7,0.3-1.1
				c0.4-1.4-0.5-2.7-2-2.8c-4.5-0.4-8.8,0.6-12.4,3.1c-6.9,4.8-6.1,14.2-3.3,21.1c3.1,7.9,9.2,14.4,16.6,18.6
				c4.9,2.8,10.4,4.5,16,4.7c2.2,0.1,4.5-0.1,6.7-0.4c9.2-1.4,17.3-6.8,23.8-13.2c2.3-2.2,4.4-4.7,6.3-7.2c3.7-4.8,7.8-9.8,8.7-16.4
				c0,0,5.4,12.3,4.8,31.5S-698.4,464.3-698.4,464.3z"/>
			<path class="st1" d="M-731.8,382.6c1.3-0.4,2.2-1.3,3.1-2.1c6.3-5.8,10.2-13.1,12.2-21.4c0.1-0.3,0.1-0.5,0.1-0.8
				c0.2-3.5-5.2-3.9-5.8-0.5c-0.1,0.5-0.1,0.9-0.2,1.4c-1,8.5-3.9,16.2-9.4,22.8C-731.8,382.2-731.8,382.4-731.8,382.6z"/>
			<path class="st1" d="M-729.8,385.1c2.3-0.5,4.2-1.8,6-3.2c5-3.7,9.5-8,12.3-13.8c0.5-1,1-2,1.1-3.2c0.1-1.2-0.4-2.2-1.6-2.5
				c-1.2-0.3-2.2,0.1-2.7,1.2c-0.6,1.2-1.1,2.4-1.5,3.6c-2,5.9-6,10.4-10.4,14.7C-727.7,382.9-729,383.8-729.8,385.1z"/>
			<path class="st1" d="M-733.8,379.7c1-0.7,1.7-1.7,2.3-2.6c2.7-3.8,4.5-8.1,5.5-12.7c0.2-0.9,0.2-1.8,0.2-2.7
				c0-1.5-0.7-2.4-2.1-2.6c-1.4-0.2-2.3,0.7-2.7,1.9c-0.4,1.2-0.8,2.4-0.7,3.6c0.2,4.8-0.8,9.3-2.4,13.8
				C-733.8,378.7-734.2,379.1-733.8,379.7z"/>
			<path class="st1" d="M-729.2,387.7c2.3,0.2,4.1-0.5,6-1c4.2-1.2,8.4-2.7,11.8-5.6c0.7-0.6,1.2-1.2,1.8-1.9
				c0.7-0.9,0.6-1.9-0.2-2.8c-0.8-0.9-1.8-1.1-2.9-0.5c-1.1,0.7-2,1.5-2.8,2.4c-3.5,3.8-7.8,6.5-12.6,8.4c-0.2,0.1-0.4,0.2-0.6,0.3
				C-728.9,387.2-728.9,387.3-729.2,387.7z"/>
			<path class="st1" d="M-736.6,378.5c1.1-0.7,1.3-1.9,1.6-2.8c0.9-3.3,1.6-6.7,0.5-10.2c-0.4-1.3-1-2.3-2.4-2.1
				c-1.4,0.2-1.7,1.3-1.7,2.6c0,0.9,0,1.7,0.4,2.6C-736.9,371.7-736.2,375-736.6,378.5z"/>
		</g>
		<ellipse class="st2" cx="-735.2" cy="396.1" rx="1.9" ry="3.4"/>
	</g>
</g>
<g>
	<g>
		<path class="st2" d="M-287.7,191.3c-14.1,22.5-42.5,23.4-50.4,42.7c-1.9,4.7,55.6,12.9,79.4,10.8c20.1-1.8,42-12.9,53.3-31.4
			c14-23,16-46.4,7.4-79.5C-198.1,133.9-260.9,148.3-287.7,191.3z"/>
		<g>
			<path class="st1" d="M-284.8,193.1c-6.6,11.3-18.2,18.7-29.1,24.9c-8.1,4.8-16.1,9-19.9,17.5c0,0-0.1,0.2-0.1,0.2c0,0,0,0.1,0,0
				c0.7-1.2,0-3.4-0.5-3.8c-0.5-0.6-0.5-0.4-0.4-0.4c0.5,0.3,2,0.9,3.3,1.3c17.2,4.7,35.7,6.8,53.5,8.3c24,2.7,48.2-2.9,65-21.3
				c21.2-24.1,22-55.9,13.8-85.6c0,0,1.4,0.8,1.4,0.8c-4.3,1-8.7,2.4-12.9,3.9C-239.7,149.3-268.4,166.3-284.8,193.1L-284.8,193.1z
				 M-290.6,189.5c15.5-23.4,40.6-38.3,66.2-48.3c8.9-3.4,17.9-6.4,27.2-8.7c0,0,0.3,1.1,0.3,1.1c6.4,23.8,8.5,50.2-2.7,73
				c-10.2,23.8-34.4,39.1-59.9,41.6c-19,1.3-37.3-0.5-56-3.1c-6.9-1.1-14.1-2.1-21.1-4.6c-1.8-0.8-3.3-1.1-5-3.1
				c-0.7-0.6-1.6-3.1-1-4.7c0.1-0.3,0.3-0.7,0.4-1c1.7-4.1,4.6-7.9,7.8-10.8C-320.3,208.9-300.8,205.6-290.6,189.5L-290.6,189.5z"/>
		</g>
	</g>
	<g>
		<path class="st2" d="M-317.9,182.2c-13.9,27.9-42.6,47.1-18.6,51.8c31.6,6.2,69.7,17.1,94.3-7.7c49.5-49.9,16.8-122.8,16.6-123.5
			C-225.6,102.7-291.4,128.8-317.9,182.2z"/>
		<g>
			<path class="st1" d="M-314.9,183.7c-5.5,11.7-13.4,21.8-20.4,31.7c-2.3,3.4-4.9,6.9-5.9,10.6c-0.2,1-0.1,1.3,0,1.3
				c0.8,1,3.2,1.7,4.9,2.1c0,0,9,1.9,9,1.9c27.9,5.9,62.4,14.6,84.5-8.6c12.8-12.8,21.3-29.5,24.6-47.5c4.3-24.1,0.6-49.4-8.5-72
				c0,0,1.5,0.7,1.5,0.7c-9.4,3.9-18.6,8.9-27.3,14.3C-278.1,134.4-301.6,156-314.9,183.7L-314.9,183.7z M-320.9,180.6
				c14.8-28.2,40-49,67.1-64.8c9-5.2,18.2-10,27.8-14.1l1-0.4l0.4,1.1c13.8,34.4,17.2,76.1-2.6,109c-10.4,17.3-24.7,30.6-45.4,33.4
				c-22.1,3.2-44.3-2.4-65.7-6.5c-17.9-4.1-12.5-17.2-3.8-27.9C-334.5,200.7-326.6,191.5-320.9,180.6L-320.9,180.6z"/>
		</g>
	</g>
	<g>
		<path class="st2" d="M-350,177.4c-6.3,36.7-2.7,68,26.5,68.8c33.9,0.9,63.5-7.8,76-42.9c22.7-63.8-18.8-141.3-18.8-141.3
			S-338,107.4-350,177.4z"/>
		<g>
			<path class="st1" d="M-346.7,178c-2.3,17.8-5,41.1,5.8,55.8c5.5,7.4,15.1,8.3,24,8c22.2,0.2,46.5-6,59.2-25.6
				c24.4-39.4,14.6-94.3-1.5-135.3c-2.5-6.3-5.2-12.5-8.2-18.5l1.6,0.4c-10.1,6.6-19.5,14.4-28.3,22.8c-8.7,8.4-16.8,17.5-24,27.2
				C-332.2,132.1-343,154.4-346.7,178L-346.7,178z M-353.4,176.9c7-36.9,30.4-68.2,57.6-93c9.4-8.5,19.2-16.5,29.8-23.5
				c0,0,0.6,1.1,0.6,1.1c12.3,24.4,20.9,50.5,25.1,77.6c6,39.8-0.6,93.1-45.2,106.8c-13.7,4.4-27.7,5.5-42,4.6
				C-362.3,246-358.3,202.3-353.4,176.9L-353.4,176.9z"/>
		</g>
	</g>
	<g>
		<path class="st2" d="M-354.6,191.3c14.1,22.5,42.5,23.4,50.4,42.7c1.9,4.7-55.6,12.9-79.4,10.8c-20.1-1.8-42-12.9-53.3-31.4
			c-14-23-16-46.4-7.4-79.5C-444.2,133.9-381.4,148.3-354.6,191.3z"/>
		<g>
			<path class="st1" d="M-351.7,189.5c10.2,16.1,29.6,19.4,43.8,31.6c3.2,2.9,6.1,6.7,7.8,10.8c0.3,0.7,0.5,1.4,0.6,2.2
				c0,1.8-0.7,2.9-1.2,3.5c-1.7,2-3.2,2.3-5,3.1c-7,2.4-14.2,3.4-21.1,4.6c-18.6,2.6-37,4.4-56,3.1c-34.1-3.7-58.6-26-65.9-59.4
				c-4.2-18.7-1.1-38.1,3.6-56.3c9.3,2.2,18.3,5.3,27.2,8.7C-392.3,151.2-367.2,166.1-351.7,189.5L-351.7,189.5z M-357.5,193.1
				c-16.5-26.8-45.1-43.7-74.1-54.2c-4.3-1.5-8.6-2.9-12.9-3.9l1.3-0.8c-8.2,29.7-7.4,61.5,13.8,85.6c16.8,18.3,41,23.9,65,21.3
				c17.8-1.5,36.3-3.6,53.5-8.3c1.3-0.4,2.7-0.9,3.3-1.3c0.1,0,0.1-0.2-0.4,0.4c-0.5,0.4-1.1,2.6-0.5,3.8c0,0,0,0,0,0l-0.1-0.2
				c-3.8-8.4-11.8-12.7-19.9-17.5C-339.3,211.8-350.9,204.4-357.5,193.1L-357.5,193.1z"/>
		</g>
	</g>
	<g>
		<path class="st2" d="M-324.4,182.2c13.9,27.9,42.6,47.1,18.6,51.8c-31.6,6.2-69.7,17.1-94.3-7.7c-49.5-49.9-16.8-122.8-16.6-123.5
			C-416.7,102.7-350.9,128.8-324.4,182.2z"/>
		<g>
			<path class="st1" d="M-321.4,180.6c5.7,10.8,13.5,20,21.1,29.7c8.6,10.5,14.2,23.8-3.8,27.9c-21.4,4.1-43.6,9.8-65.7,6.5
				c-20.7-2.8-35-16.1-45.4-33.4c-19.8-32.9-16.4-74.6-2.6-109c0,0,0.4-1.1,0.4-1.1c10,4.2,19.5,9.1,28.9,14.5
				C-361.4,131.6-336.2,152.5-321.4,180.6L-321.4,180.6z M-327.5,183.7c-13.3-27.6-36.7-49.3-62.4-65.6
				c-8.7-5.4-17.8-10.4-27.3-14.3l1.5-0.7c-9.1,22.6-12.9,48-8.6,72c3.3,17.9,11.8,34.6,24.6,47.5c22.1,23.1,56.6,14.4,84.5,8.6
				c0,0,9-1.9,9-1.9c1.7-0.3,4.1-1.1,4.9-2.1c0.1-0.1,0.2-0.4,0-1.3c-1-3.7-3.6-7.1-5.9-10.6C-314,205.4-322,195.3-327.5,183.7
				L-327.5,183.7z"/>
		</g>
	</g>
	<g>
		<path class="st2" d="M-292.3,177.4c6.3,36.7,2.7,68-26.5,68.8c-33.9,0.9-63.5-7.8-76-42.9C-417.6,139.6-376,62.1-376,62.1
			S-304.3,107.4-292.3,177.4z"/>
		<g>
			<path class="st1" d="M-289,176.9c5,25.4,8.9,69.1-25.9,73.6c-14.4,0.9-28.3-0.2-42-4.6c-44.6-13.7-51.2-67-45.2-106.8
				c4.2-27,12.8-53.2,25.1-77.6c0,0,0.6-1.1,0.6-1.1c10.7,6.9,20.5,14.9,29.8,23.5C-319.3,108.6-296,140-289,176.9L-289,176.9z
				 M-295.6,178c-3.7-23.6-14.5-45.9-28.7-65.1c-7.2-9.7-15.3-18.8-24-27.2c-8.8-8.3-18.2-16.1-28.3-22.8l1.6-0.4
				c-3.1,6-5.7,12.2-8.2,18.5c-16,40.9-25.8,95.9-1.5,135.3c12.7,19.6,37,25.8,59.2,25.6c8.9,0.2,18.5-0.6,24-8
				C-290.6,219.1-293.4,195.8-295.6,178L-295.6,178z"/>
		</g>
	</g>
	<g>
		<path class="st2" d="M-373.2,190.4c2.9,37.1,23.7,54.4,52.9,54.4c29.2,0,49.3-17.4,52.9-54.4C-261.1,123-320.4,58-320.4,58
			S-378.8,119.5-373.2,190.4z"/>
		<g>
			<path class="st1" d="M-369.9,190.1c2.2,26.2,16.2,47.9,43.9,49.9c27.5,2.7,47.2-11.4,53.4-38.7c8.9-38.3-5.7-78.1-25.5-110.8
				c-6.9-11.1-14.5-21.9-23.1-31.7l1.6,0c-16.2,17.9-29.2,38.9-38.5,61.2C-367,142.1-372.1,166.3-369.9,190.1L-369.9,190.1z
				 M-376.6,190.6c-1.5-25,4.6-49.7,15.1-72.2c7.6-16.8,17.5-32.4,28.6-47.1c3.9-5.2,8.1-10.3,12.6-15.1c0,0,0.8,0.9,0.8,0.9
				c25.7,30.2,46.9,65.7,53.8,105.1c3.9,26.2,1.9,58.5-20.7,76.3c-17,12.8-42,13.8-60.9,4.9C-367.1,233.9-375.8,211.3-376.6,190.6
				L-376.6,190.6z"/>
		</g>
	</g>
	<g>
		<g>
			<path class="st1" d="M-278.9,227.3c0.2,0.1-44.7,42.5-83.3-0.3c-4.6-5-9.4-14-10.8-20.7c-2-9.8-2-18.7-0.7-29.2
				c1.5-11.8,6.1-21.2,14.9-30c1.2-1.2,2.6-2.3,4-3.3c8.4-5.4,17.2-7.2,26.7-4.9c13.7,3.2,19.9,14.7,16.1,27.7
				c-0.9,3-1.4,5.6-0.7,8.6c0.1,0.4,0.1,0.9,0.1,1.3c-0.2,2.3-0.3,4.7-2.2,6.5c-0.3,0.3-0.7,0.8-1.2,0.6c-0.5-0.2-0.4-0.7-0.4-1.1
				c-0.2-2.2-0.7-4.3-1.7-6.3c-0.6-1.2-1.1-2.4-1.9-3.5c-0.8-1-2.6-1.8-2.6-1.8c-5.1-2-10.7-9.3-8.7-16.6c0.1-0.4,0.2-0.7,0.3-1.1
				c0.4-1.4-0.5-2.7-2-2.8c-4.5-0.4-8.8,0.6-12.4,3.1c-6.9,4.8-6.1,14.2-3.3,21.1c3.1,7.9,9.2,14.4,16.6,18.6
				c4.9,2.8,10.4,4.5,16,4.7c2.2,0.1,4.5-0.1,6.7-0.4c9.2-1.4,17.3-6.8,23.8-13.2c2.3-2.2,4.4-4.7,6.3-7.2c3.7-4.8,7.8-9.8,8.7-16.4
				c0,0,5.4,12.3,4.8,31.5C-266.3,211.3-278.9,227.3-278.9,227.3z"/>
			<path class="st1" d="M-312.3,145.6c1.3-0.4,2.2-1.3,3.1-2.1c6.3-5.8,10.2-13.1,12.2-21.4c0.1-0.3,0.1-0.5,0.1-0.8
				c0.2-3.5-5.2-3.9-5.8-0.5c-0.1,0.5-0.1,0.9-0.2,1.4c-1,8.5-3.9,16.2-9.4,22.8C-312.3,145.1-312.3,145.3-312.3,145.6z"/>
			<path class="st1" d="M-310.3,148.1c2.3-0.5,4.2-1.8,6-3.2c5-3.7,9.5-8,12.3-13.8c0.5-1,1-2,1.1-3.2c0.1-1.2-0.4-2.2-1.6-2.5
				c-1.2-0.3-2.2,0.1-2.7,1.2c-0.6,1.2-1.1,2.4-1.5,3.6c-2,5.9-6,10.4-10.4,14.7C-308.2,145.9-309.5,146.7-310.3,148.1z"/>
			<path class="st1" d="M-314.3,142.6c1-0.7,1.7-1.7,2.3-2.6c2.7-3.8,4.5-8.1,5.5-12.7c0.2-0.9,0.2-1.8,0.2-2.7
				c0-1.5-0.7-2.4-2.1-2.6c-1.4-0.2-2.3,0.7-2.7,1.9c-0.4,1.2-0.8,2.4-0.7,3.6c0.2,4.8-0.8,9.3-2.4,13.8
				C-314.4,141.7-314.7,142-314.3,142.6z"/>
			<path class="st1" d="M-309.7,150.6c2.3,0.2,4.1-0.5,6-1c4.2-1.2,8.4-2.7,11.8-5.6c0.7-0.6,1.2-1.2,1.8-1.9
				c0.7-0.9,0.6-1.9-0.2-2.8c-0.8-0.9-1.8-1.1-2.9-0.5c-1.1,0.7-2,1.5-2.8,2.4c-3.5,3.8-7.8,6.5-12.6,8.4c-0.2,0.1-0.4,0.2-0.6,0.3
				C-309.4,150.1-309.4,150.3-309.7,150.6z"/>
			<path class="st1" d="M-317.1,141.4c1.1-0.7,1.3-1.9,1.6-2.8c0.9-3.3,1.6-6.7,0.5-10.2c-0.4-1.3-1-2.3-2.4-2.1
				c-1.4,0.2-1.7,1.3-1.7,2.6c0,0.9,0,1.7,0.4,2.6C-317.4,134.6-316.7,137.9-317.1,141.4z"/>
		</g>
		<ellipse class="st2" cx="-315.7" cy="159" rx="1.9" ry="3.4"/>
	</g>
</g>
<g>
	<path class="st0" d="M-840.9,513.5c-1,0.4-1.6,1-2,2c-0.4,1-0.5,2.6-0.5,4.9v44.1c0,2.3,0.2,3.9,0.5,4.9c0.4,1,1,1.7,2,2
		c1,0.4,2.5,0.6,4.7,0.7v1.8c-2.5-0.2-6.3-0.3-11.4-0.3c-4.8,0-8.6,0.1-11.3,0.3v-1.8c2.1-0.1,3.7-0.4,4.7-0.7c1-0.4,1.6-1,2-2
		c0.4-1,0.5-2.6,0.5-4.9v-21.3h-28.9v21.3c0,2.3,0.2,3.9,0.5,4.9c0.4,1,1,1.7,2,2c1,0.4,2.5,0.6,4.7,0.7v1.8
		c-2.7-0.2-6.5-0.3-11.3-0.3c-5.1,0-8.9,0.1-11.4,0.3v-1.8c2.1-0.1,3.7-0.4,4.7-0.7c1-0.4,1.6-1,2-2c0.4-1,0.5-2.6,0.5-4.9v-44.1
		c0-2.3-0.2-3.9-0.5-4.9c-0.4-1-1-1.7-2-2c-1-0.4-2.5-0.6-4.7-0.7V511c2.5,0.2,6.3,0.3,11.4,0.3c4.7,0,8.5-0.1,11.3-0.3v1.8
		c-2.1,0.1-3.7,0.4-4.7,0.7s-1.6,1-2,2c-0.4,1-0.5,2.6-0.5,4.9v21h28.9v-21c0-2.3-0.2-3.9-0.5-4.9c-0.4-1-1-1.7-2-2
		c-1-0.4-2.5-0.6-4.7-0.7V511c2.7,0.2,6.5,0.3,11.3,0.3c5.1,0,8.9-0.1,11.4-0.3v1.8C-838.3,512.9-839.9,513.1-840.9,513.5z"/>
	<path class="st0" d="M-826.7,571.8c-1.8-1.9-2.7-4.5-2.7-7.8c0-2.7,0.7-4.9,2.2-6.6c1.5-1.7,3.2-3.1,5.2-4.1c2-1,4.6-2.1,7.9-3.2
		c3.3-1.1,5.8-2.2,7.4-3.1c1.6-0.9,2.4-2.2,2.4-3.8v-5.5c0-3.4-0.7-5.8-2.2-7.1c-1.5-1.3-3.5-1.9-6.1-1.9c-4.2,0-7.1,1.1-8.8,3.2
		c1.2,0.3,2.2,0.9,3,1.9c0.8,0.9,1.2,2.1,1.2,3.6c0,1.5-0.5,2.7-1.4,3.5c-0.9,0.9-2.2,1.3-3.6,1.3c-1.7,0-2.9-0.5-3.7-1.6
		c-0.8-1-1.2-2.3-1.2-3.8c0-1.4,0.3-2.6,1-3.6c0.7-0.9,1.7-1.9,3.1-2.8c1.4-1,3.2-1.8,5.4-2.5c2.2-0.7,4.6-1,7.2-1
		c4.6,0,8.1,1.1,10.5,3.3c1.5,1.4,2.5,3,3,4.9c0.5,1.9,0.8,4.5,0.8,7.6v24.7c0,1.5,0.2,2.5,0.6,3.2c0.4,0.7,1.1,1,2.1,1
		c0.7,0,1.4-0.2,2-0.5c0.6-0.3,1.3-0.8,2-1.4l1,1.5c-1.5,1.2-2.9,2-4,2.5c-1.1,0.5-2.5,0.8-4.1,0.8c-2.8,0-4.8-0.7-6-2.1
		c-1.1-1.4-1.7-3.3-1.7-5.8c-1.8,3-3.8,5-6.1,6.2c-2.3,1.2-4.9,1.7-7.8,1.7C-822.2,574.6-824.9,573.6-826.7,571.8z M-804.5,564.3
		v-17.4c-0.5,0.8-1.3,1.5-2.2,2c-0.9,0.5-2.4,1.2-4.4,2.1c-2.3,0.9-4.1,1.9-5.5,2.7c-1.4,0.9-2.6,2-3.6,3.5c-1,1.5-1.5,3.4-1.5,5.7
		c0,2.7,0.7,4.7,2,6c1.3,1.4,3,2,5.2,2C-810.6,571-807.2,568.8-804.5,564.3z"/>
	<path class="st0" d="M-720.9,528.1v1.8c-1.2,0.2-2.3,0.7-3.3,1.6c-0.9,0.9-1.8,2.4-2.5,4.6l-12.9,38.2h-1.5l-14.1-35.7l-12.7,35.7
		h-1.5l-14.6-39.4c-0.8-2.1-1.7-3.4-2.5-4c-0.9-0.6-1.7-0.9-2.6-0.9v-1.9c2.3,0.4,4.9,0.5,7.8,0.5c3,0,6.8-0.2,11.6-0.5v1.9
		c-2.2,0-3.8,0.2-4.8,0.5c-1,0.4-1.5,1.3-1.5,2.8c0,1.1,0.3,2.5,0.9,4.2l8.9,25.6l12.8-35.3h2l13.6,35.9l8.4-25.4
		c0.5-1.6,0.8-2.9,0.8-4c0-1.4-0.5-2.5-1.5-3.1c-1-0.7-2.7-1.1-5.1-1.2v-1.8c3.1,0.2,5.6,0.3,7.5,0.3
		C-725,528.4-722.8,528.3-720.9,528.1z"/>
	<path class="st0" d="M-703.7,528.2h13.2v1.8h-13.2v34.4c0,2.7,0.5,4.6,1.5,5.8c1,1.2,2.4,1.8,4.2,1.8c1.8,0,3.4-0.7,4.7-2.2
		c1.3-1.5,2.4-3.9,3.3-7.3l1.8,0.4c-1.5,8.2-5.3,12.3-11.6,12.3c-2,0-3.7-0.2-5-0.7c-1.3-0.5-2.5-1.2-3.5-2.2
		c-1.3-1.3-2.2-2.9-2.7-4.8c-0.5-1.9-0.8-4.4-0.8-7.6V530h-8.5v-1.8h8.5v-13.6c3.3-0.1,6-0.5,8-1.2V528.2z"/>
	<path class="st0" d="M-672.6,537.6c1.5-3.7,3.5-6.4,6.2-8.1c2.6-1.7,5.6-2.5,8.9-2.5c4.1,0,7.3,1.1,9.4,3.4
		c1.1,1.2,1.9,2.7,2.4,4.4c0.5,1.8,0.7,4.2,0.7,7.2v23.7c0,2.4,0.5,4.1,1.5,5c1,0.9,2.8,1.4,5.2,1.4v1.9c-5.5-0.2-9-0.4-10.7-0.4
		c-1.7,0-5,0.1-10,0.4v-1.9c2.2,0,3.7-0.5,4.6-1.4c0.9-0.9,1.3-2.6,1.3-5V540c0-3.3-0.5-5.9-1.4-7.6c-0.9-1.7-2.9-2.6-5.8-2.6
		c-2.4,0-4.6,0.7-6.4,2c-1.9,1.4-3.3,3.3-4.4,5.7c-1.1,2.5-1.6,5.2-1.6,8.3v19.8c0,2.4,0.4,4.1,1.3,5c0.9,0.9,2.4,1.4,4.6,1.4v1.9
		c-5-0.2-8.3-0.4-10-0.4c-1.7,0-5.2,0.1-10.7,0.4v-1.9c2.5,0,4.2-0.5,5.2-1.4c1-0.9,1.5-2.6,1.5-5V515c0-2.7-0.5-4.7-1.5-6
		c-1-1.2-2.8-1.9-5.2-1.9v-1.9c1.9,0.2,3.7,0.3,5.5,0.3c3.7,0,6.8-0.4,9.2-1.2V537.6z"/>
	<path class="st0" d="M-597.8,532.9c3.7,4,5.6,10.1,5.6,18.2c0,8.1-1.9,14.2-5.6,18.1c-3.7,4-8.6,6-14.6,6s-10.9-2-14.6-6
		c-3.7-4-5.6-10-5.6-18.1c0-8.1,1.9-14.2,5.6-18.2c3.7-4,8.6-6,14.6-6S-601.5,528.9-597.8,532.9z M-620.9,534.1
		c-2.1,3.6-3.1,9.3-3.1,16.9s1,13.3,3.1,16.9c2.1,3.6,4.9,5.4,8.4,5.4c3.6,0,6.4-1.8,8.4-5.4c2.1-3.6,3.1-9.2,3.1-16.9
		s-1-13.3-3.1-16.9c-2.1-3.6-4.9-5.5-8.4-5.5C-616,528.7-618.8,530.5-620.9,534.1z"/>
	<path class="st0" d="M-552,528.9c1.5,1.4,2.3,3,2.3,5c0,1.5-0.5,2.9-1.4,4c-0.9,1.1-2.1,1.6-3.7,1.6c-1.3,0-2.4-0.4-3.3-1.2
		s-1.4-2-1.4-3.4c0-2,1-3.6,3-4.8c-0.4-0.6-1-0.9-1.9-0.9c-2.3,0-4.4,0.9-6.3,2.7c-1.9,1.8-3.4,4-4.4,6.6s-1.6,5.1-1.6,7.4v18.9
		c0,2.7,0.8,4.6,2.4,5.7c1.6,1.1,3.9,1.6,7.1,1.6v1.9l-2.1-0.1c-6-0.2-9.9-0.3-11.6-0.3c-1.5,0-5,0.1-10.5,0.4v-1.9
		c2.5,0,4.2-0.5,5.2-1.4c1-0.9,1.5-2.6,1.5-5v-27.8c0-2.7-0.5-4.7-1.5-6s-2.8-1.9-5.2-1.9v-1.9c1.9,0.2,3.7,0.3,5.5,0.3
		c3.7,0,6.8-0.4,9.2-1.2v11.1c1.1-3,2.8-5.6,5.1-7.9c2.3-2.3,4.9-3.5,7.8-3.5C-555.5,526.9-553.5,527.6-552,528.9z"/>
	<path class="st0" d="M-506.6,530.3c1.1,1.2,1.9,2.7,2.4,4.4c0.5,1.8,0.7,4.2,0.7,7.2v23.7c0,2.4,0.5,4.1,1.5,5
		c1,0.9,2.8,1.4,5.2,1.4v1.9c-5.5-0.2-9-0.4-10.7-0.4c-1.7,0-5,0.1-10,0.4v-1.9c2.2,0,3.7-0.5,4.6-1.4c0.9-0.9,1.3-2.6,1.3-5V540
		c0-3.3-0.5-5.9-1.4-7.6c-0.9-1.7-2.9-2.6-5.8-2.6c-2.4,0-4.6,0.7-6.5,2.1s-3.4,3.4-4.4,5.8c-1,2.5-1.6,5.2-1.6,8.2v19.7
		c0,2.4,0.4,4.1,1.3,5c0.9,0.9,2.4,1.4,4.6,1.4v1.9c-5-0.2-8.3-0.4-10-0.4c-1.7,0-5.2,0.1-10.7,0.4v-1.9c2.5,0,4.2-0.5,5.2-1.4
		c1-0.9,1.5-2.6,1.5-5v-27.8c0-2.7-0.5-4.7-1.5-6s-2.8-1.9-5.2-1.9v-1.9c1.9,0.2,3.7,0.3,5.5,0.3c3.7,0,6.8-0.4,9.2-1.2v10.5
		c1.5-3.8,3.5-6.5,6.2-8.2c2.6-1.7,5.6-2.5,8.9-2.5C-511.9,526.9-508.8,528-506.6,530.3z"/>
</g>
<g>
	<path class="st0" d="M-966.8,517.3c0,1.4,0,2.6,0.1,3.5h-1c-0.2-2.2-0.5-3.8-0.9-4.9c-0.3-1.1-0.9-1.8-1.8-2.3s-2.2-0.7-3.9-0.7
		h-2.3v24.3c0,1.2,0.1,2.1,0.3,2.6c0.2,0.5,0.6,0.9,1.2,1.1c0.6,0.2,1.5,0.3,2.8,0.4v0.9c-1.5-0.1-3.6-0.1-6.3-0.1
		c-2.8,0-4.9,0-6.3,0.1v-0.9c1.3-0.1,2.2-0.2,2.8-0.4c0.6-0.2,1-0.6,1.2-1.1c0.2-0.5,0.3-1.4,0.3-2.6v-24.3h-2.3
		c-1.8,0-3.1,0.2-3.9,0.7s-1.4,1.3-1.8,2.3c-0.3,1.1-0.6,2.7-0.9,4.9h-1c0.1-0.9,0.1-2.1,0.1-3.5c0-1.6-0.1-3.4-0.3-5.5
		c2.4,0.1,6.4,0.1,12,0.1c5.6,0,9.6,0,12-0.1C-966.7,513.9-966.8,515.7-966.8,517.3z"/>
	<path class="st0" d="M-937,513.1c-0.5,0.2-0.8,0.5-1,1c-0.2,0.5-0.3,1.3-0.3,2.3v21.1c0,1.1,0.1,1.9,0.3,2.3c0.2,0.5,0.5,0.8,1,1
		c0.5,0.2,1.2,0.3,2.2,0.3v0.9c-1.2-0.1-3-0.1-5.5-0.1c-2.3,0-4.1,0-5.4,0.1v-0.9c1-0.1,1.8-0.2,2.2-0.3c0.5-0.2,0.8-0.5,1-1
		c0.2-0.5,0.3-1.3,0.3-2.3v-10.2H-956v10.2c0,1.1,0.1,1.9,0.3,2.3c0.2,0.5,0.5,0.8,1,1c0.5,0.2,1.2,0.3,2.2,0.3v0.9
		c-1.3-0.1-3.1-0.1-5.4-0.1c-2.4,0-4.3,0-5.5,0.1v-0.9c1-0.1,1.8-0.2,2.2-0.3c0.5-0.2,0.8-0.5,1-1c0.2-0.5,0.3-1.3,0.3-2.3v-21.1
		c0-1.1-0.1-1.9-0.3-2.3c-0.2-0.5-0.5-0.8-1-1c-0.5-0.2-1.2-0.3-2.2-0.3v-0.9c1.2,0.1,3,0.1,5.5,0.1c2.3,0,4.1,0,5.4-0.1v0.9
		c-1,0.1-1.8,0.2-2.2,0.3c-0.5,0.2-0.8,0.5-1,1c-0.2,0.5-0.3,1.3-0.3,2.3v10.1h13.9v-10.1c0-1.1-0.1-1.9-0.3-2.3
		c-0.2-0.5-0.5-0.8-1-1c-0.5-0.2-1.2-0.3-2.2-0.3v-0.9c1.3,0.1,3.1,0.1,5.4,0.1c2.4,0,4.3,0,5.5-0.1v0.9
		C-935.8,512.8-936.5,512.9-937,513.1z"/>
	<path class="st0" d="M-909,542c-1.9-0.1-5.2-0.1-9.8-0.1c-5.5,0-9.6,0-12.4,0.1v-0.9c1-0.1,1.8-0.2,2.2-0.3c0.5-0.2,0.8-0.5,1-1
		c0.2-0.5,0.3-1.3,0.3-2.3v-21.1c0-1.1-0.1-1.9-0.3-2.3c-0.2-0.5-0.5-0.8-1-1c-0.5-0.2-1.2-0.3-2.2-0.3v-0.9
		c2.8,0.1,6.9,0.1,12.4,0.1c4.2,0,7.1,0,8.9-0.1c-0.2,1.9-0.3,3.6-0.3,5c0,1.1,0,2,0.1,2.6h-1c-0.2-1.8-0.5-3.2-0.8-4.1
		c-0.3-0.9-0.8-1.5-1.6-2c-0.7-0.4-1.9-0.6-3.4-0.6h-3.5c-1,0-1.8,0.1-2.2,0.2c-0.5,0.2-0.8,0.5-1,1c-0.2,0.5-0.3,1.3-0.3,2.3v10.1
		h2.8c1,0,1.8-0.2,2.3-0.7c0.5-0.5,0.9-1,1.1-1.7c0.2-0.6,0.3-1.4,0.4-2.4l0.1-0.9h1c-0.1,1.2-0.1,2.5-0.1,4v2
		c0,1.4,0.1,3.5,0.3,6.1h-1c0-0.2-0.1-0.9-0.3-2.1c-0.1-1.2-0.5-2.1-1.2-2.7c-0.6-0.6-1.5-0.9-2.7-0.9h-2.8v10.2
		c0,1.1,0.1,1.9,0.3,2.3c0.2,0.5,0.5,0.8,1,1c0.5,0.2,1.2,0.2,2.2,0.2h3.1c1.8,0,3.1-0.2,4-0.7c0.9-0.5,1.6-1.2,2-2.3
		c0.4-1,0.7-2.6,0.9-4.6h1c-0.1,0.8-0.1,1.8-0.1,3.1C-909.3,538.2-909.2,540-909,542z"/>
</g>
<g>
	<path class="st0" d="M-754.2,586.7c1.2-0.3,2.7-0.4,4.3-0.4c2.6,0,4.3,0.5,5.4,1.7c0.8,0.8,1.2,1.8,1.2,3.1c0,1.9-1.4,3.6-3.4,4.3
		v0.1c1.4,0.3,4.2,1.6,4.2,4.8c0,1.6-0.6,2.7-1.4,3.6c-1.3,1.3-3.5,1.9-6.6,1.9c-1.5,0-2.7-0.1-3.6-0.2V586.7z M-752.8,594.9h3.3
		c3,0,4.7-1.7,4.7-3.7c0-2.9-2.4-3.7-5.2-3.7c-1.5,0-2.3,0.1-2.8,0.2V594.9z M-752.8,604.4c0.7,0.1,1.6,0.2,2.7,0.2
		c3,0,6.1-0.9,6.1-4.3c0-3-2.7-4.3-6-4.3h-2.9V604.4z"/>
	<path class="st0" d="M-718.1,595.8c0,6.6-4.7,10.1-9.7,10.1c-5.4,0-9.5-4.1-9.5-9.6c0-6,4.3-10.1,9.7-10.1
		C-721.9,586.1-718.1,590.3-718.1,595.8z M-735.8,596.2c0,4.5,3.1,8.6,8.1,8.6c5,0,8.2-3.8,8.2-8.9c0-4.1-2.7-8.6-8.1-8.6
		C-733.1,587.3-735.8,591.5-735.8,596.2z"/>
	<path class="st0" d="M-710.3,586.5v11c0,5.2,2.6,7.3,5.8,7.3c3.5,0,6.1-2.2,6.1-7.3v-11h1.4v10.9c0,6.2-3.5,8.5-7.5,8.5
		c-3.7,0-7.1-2.2-7.1-8.4v-11.1H-710.3z"/>
	<path class="st0" d="M-685.2,587.6h-7.1v-1.2h15.6v1.2h-7.1v17.9h-1.4V587.6z"/>
	<path class="st0" d="M-670.6,586.5v19.1h-1.4v-19.1H-670.6z"/>
	<path class="st0" d="M-645.2,608.1c-2.9-0.6-5.8-1.3-8.2-2c-0.4-0.1-0.8-0.3-1.2-0.3c-5.3-0.1-9.6-3.8-9.6-9.6
		c0-6.1,4.3-10.2,9.7-10.2c5.6,0,9.5,4.1,9.5,9.6c0,5.2-2.8,8.5-6.9,9.7v0.1c2.4,0.5,5.1,1,7.1,1.3L-645.2,608.1z M-646.4,595.9
		c0-4.1-2.7-8.6-8-8.6c-5.5,0-8.3,4.3-8.3,9c0,4.5,3.1,8.5,8.1,8.5C-649.6,604.8-646.4,600.9-646.4,595.9z"/>
	<path class="st0" d="M-637.2,586.5v11c0,5.2,2.6,7.3,5.8,7.3c3.5,0,6.1-2.2,6.1-7.3v-11h1.4v10.9c0,6.2-3.5,8.5-7.5,8.5
		c-3.7,0-7.1-2.2-7.1-8.4v-11.1H-637.2z"/>
	<path class="st0" d="M-606.2,596.1h-8.5v8.3h9.5v1.2h-10.9v-19.1h10.4v1.2h-9v7.3h8.5V596.1z"/>
	<path class="st0" d="M-587.8,586.5v8.4h12v-8.4h1.4v19.1h-1.4V596h-12v9.6h-1.4v-19.1H-587.8z"/>
	<path class="st0" d="M-548.8,595.8c0,6.6-4.7,10.1-9.7,10.1c-5.4,0-9.5-4.1-9.5-9.6c0-6,4.3-10.1,9.7-10.1
		C-552.7,586.1-548.8,590.3-548.8,595.8z M-566.6,596.2c0,4.5,3.1,8.6,8.1,8.6c5,0,8.2-3.8,8.2-8.9c0-4.1-2.7-8.6-8.1-8.6
		C-563.8,587.3-566.6,591.5-566.6,596.2z"/>
	<path class="st0" d="M-538.9,587.6h-7.1v-1.2h15.6v1.2h-7.1v17.9h-1.4V587.6z"/>
	<path class="st0" d="M-515.8,596.1h-8.5v8.3h9.5v1.2h-10.9v-19.1h10.4v1.2h-9v7.3h8.5V596.1z"/>
	<path class="st0" d="M-508.4,586.5h1.4v17.9h9.5v1.2h-10.9V586.5z"/>
</g>
<polygon class="st0" points="-766.1,597.4 -991.7,596.5 -766.1,595.6 -766.1,597.4 "/>
<g>
	
		<text transform="matrix(1 0 0 1 -795.3823 115.3992)" class="st3" style="font-family:'PlayfairDisplay-Regular'; font-size:49.2993px;">Hawthorn</text>
	
		<text transform="matrix(1 0 0 1 -846.3315 97.7136)" class="st3" style="font-family:'PlayfairDisplay-Regular'; font-size:23.629px;">The</text>
	<g>
		<g>
			<path class="st3" d="M-714.7,122.5c0.6-0.1,1.5-0.2,2.4-0.2c1.4,0,2.4,0.3,3,0.9c0.4,0.4,0.7,1,0.7,1.7c0,1.1-0.8,2-1.9,2.4v0
				c0.8,0.2,2.3,0.9,2.3,2.7c0,0.9-0.3,1.5-0.8,2c-0.7,0.7-1.9,1.1-3.7,1.1c-0.8,0-1.5-0.1-2-0.1V122.5z M-713.9,127h1.9
				c1.7,0,2.6-0.9,2.6-2.1c0-1.6-1.3-2.1-2.9-2.1c-0.8,0-1.3,0.1-1.6,0.1V127z M-713.9,132.3c0.4,0.1,0.9,0.1,1.5,0.1
				c1.7,0,3.4-0.5,3.4-2.4c0-1.7-1.5-2.4-3.3-2.4h-1.6V132.3z"/>
			<path class="st3" d="M-694.6,127.5c0,3.7-2.6,5.6-5.4,5.6c-3,0-5.3-2.2-5.3-5.3c0-3.3,2.4-5.6,5.4-5.6
				C-696.8,122.1-694.6,124.4-694.6,127.5z M-704.5,127.7c0,2.5,1.7,4.7,4.5,4.7c2.8,0,4.5-2.1,4.5-4.9c0-2.3-1.5-4.8-4.5-4.8
				C-702.9,122.8-704.5,125.1-704.5,127.7z"/>
			<path class="st3" d="M-690.3,122.3v6.1c0,2.9,1.4,4,3.2,4c2,0,3.4-1.2,3.4-4v-6.1h0.8v6.1c0,3.4-1.9,4.7-4.2,4.7
				c-2.1,0-3.9-1.2-3.9-4.7v-6.1H-690.3z"/>
			<path class="st3" d="M-676.4,123h-3.9v-0.6h8.7v0.6h-3.9v9.9h-0.8V123z"/>
			<path class="st3" d="M-668.3,122.3v10.6h-0.8v-10.6H-668.3z"/>
			<path class="st3" d="M-654.2,134.4c-1.6-0.3-3.2-0.7-4.5-1.1c-0.2-0.1-0.4-0.2-0.7-0.2c-2.9-0.1-5.3-2.1-5.3-5.3
				c0-3.4,2.4-5.6,5.4-5.6c3.1,0,5.2,2.3,5.2,5.3c0,2.9-1.6,4.7-3.8,5.4v0.1c1.4,0.3,2.8,0.6,3.9,0.7L-654.2,134.4z M-654.9,127.6
				c0-2.3-1.5-4.8-4.4-4.8c-3.1,0-4.6,2.4-4.6,5c0,2.5,1.7,4.7,4.5,4.7C-656.7,132.5-654.9,130.4-654.9,127.6z"/>
			<path class="st3" d="M-649.8,122.3v6.1c0,2.9,1.4,4,3.2,4c2,0,3.4-1.2,3.4-4v-6.1h0.8v6.1c0,3.4-1.9,4.7-4.2,4.7
				c-2.1,0-3.9-1.2-3.9-4.7v-6.1H-649.8z"/>
			<path class="st3" d="M-632.6,127.7h-4.7v4.6h5.2v0.6h-6v-10.6h5.8v0.6h-5v4h4.7V127.7z"/>
			<path class="st3" d="M-622.4,122.3v4.6h6.6v-4.6h0.8v10.6h-0.8v-5.3h-6.6v5.3h-0.8v-10.6H-622.4z"/>
			<path class="st3" d="M-600.8,127.5c0,3.7-2.6,5.6-5.4,5.6c-3,0-5.3-2.2-5.3-5.3c0-3.3,2.4-5.6,5.4-5.6
				C-603,122.1-600.8,124.4-600.8,127.5z M-610.7,127.7c0,2.5,1.7,4.7,4.5,4.7c2.8,0,4.5-2.1,4.5-4.9c0-2.3-1.5-4.8-4.5-4.8
				C-609.1,122.8-610.7,125.1-610.7,127.7z"/>
			<path class="st3" d="M-595,123h-3.9v-0.6h8.7v0.6h-3.9v9.9h-0.8V123z"/>
			<path class="st3" d="M-582.2,127.7h-4.7v4.6h5.2v0.6h-6v-10.6h5.8v0.6h-5v4h4.7V127.7z"/>
			<path class="st3" d="M-578.1,122.3h0.8v9.9h5.2v0.6h-6V122.3z"/>
		</g>
	</g>
	<g>
		<polygon class="st3" points="-721.3,128.4 -846.3,127.9 -721.3,127.4 -721.3,128.4 		"/>
	</g>
</g>
<g>
	<g>
		<path class="st1" d="M313.1,238.6c-2.1-36,6.7-71.7,21.8-104.1c6.8-14.9,14.7-29.1,23.6-42.7c-1.5-1.5-3-3-4.5-4.5
			c-12.2-11.6-25.4-22.5-39.3-31.8c-4.1,8.1-7.7,16.5-11.1,25c-23.1,59.1-37.3,138.4-2.1,195.2c9.7,14.9,24,24.4,40.1,30.1
			C322.8,289.4,314.2,263.1,313.1,238.6z"/>
	</g>
	<path class="st1" d="M426.4,94.1c-9.6-15.6-20.2-30.6-32.1-44.4c-22.8,25.6-41.2,55.4-54.3,87c-8.1,19.8-14,40.9-16.5,62.2
		c3.6-8.4,8.9-16,16.2-23.3c1.8-1.8,3.7-3.4,5.8-4.7c12.1-7.7,24.9-10.4,38.7-7.2c19.8,4.7,28.7,21.3,23.2,40.1
		c-1.3,4.3-2,8.2-1,12.4c0.1,0.6,0.2,1.3,0.2,1.9c-0.3,3.4-0.4,6.8-3.1,9.3c-0.5,0.5-1,1.2-1.8,0.9c-0.7-0.3-0.6-1-0.6-1.7
		c-0.3-3.1-1.1-6.2-2.4-9.1c-0.8-1.7-1.6-3.5-2.7-5c-1.2-1.5-3.8-2.6-3.8-2.6c-7.4-2.9-15.6-13.4-12.6-24c0.1-0.5,0.3-1.1,0.5-1.6
		c0.5-2.1-0.8-3.9-2.9-4.1c-6.5-0.5-12.7,0.9-17.9,4.4c-10.1,6.9-8.8,20.5-4.8,30.5c4.5,11.4,13.4,20.9,24,26.9c7,4,15,6.5,23.1,6.7
		c3.2,0.1,6.5-0.1,9.7-0.6c11.7-1.8,40.7-13,55.4-42.6C463.2,166.2,446.7,127.6,426.4,94.1z M400,167.4c0.6-5.1-0.4-9.8-2.3-14.4
		c-0.5-1.2-0.5-2.4-0.5-3.7c0-1.8,0.3-3.4,2.4-3.7c2.1-0.3,3,1.1,3.5,3c1.5,5,0.6,9.9-0.8,14.8C401.9,164.7,401.6,166.3,400,167.4z
		 M404,169.1c-0.6-0.9-0.1-1.4,0.1-1.9c2.4-6.4,3.8-13.1,3.5-20c-0.1-1.8,0.5-3.6,1.1-5.3c0.6-1.7,1.8-3,3.9-2.7
		c2.1,0.3,3.1,1.7,3.1,3.8c0,1.3,0,2.7-0.3,4c-1.5,6.6-4.1,12.8-8,18.4C406.4,166.7,405.4,168.1,404,169.1z M406.9,173.4
		c0.1-0.4,0.1-0.6,0.2-0.8c7.9-9.6,12.1-20.7,13.6-33c0.1-0.7,0.2-1.3,0.3-2c0.8-5,8.6-4.3,8.3,0.7c0,0.4-0.1,0.8-0.2,1.2
		c-2.9,12-8.6,22.5-17.7,30.9C410.1,171.5,408.8,172.9,406.9,173.4z M414.4,172.3c6.3-6.1,12.1-12.7,15-21.3
		c0.6-1.8,1.3-3.5,2.1-5.2c0.8-1.6,2.2-2.2,3.9-1.8c1.8,0.5,2.4,1.9,2.3,3.6c-0.1,1.7-0.8,3.2-1.5,4.6c-4,8.3-10.4,14.6-17.7,20
		c-2.6,1.9-5.3,3.9-8.6,4.6C411,175,412.8,173.8,414.4,172.3z M438.9,168.5c-0.7,1-1.6,1.9-2.6,2.7c-5,4.2-11,6.4-17.1,8
		c-2.7,0.7-5.4,1.8-8.6,1.4c0.4-0.5,0.5-0.7,0.7-0.8c0.3-0.2,0.5-0.3,0.8-0.4c6.9-2.8,13.1-6.7,18.2-12.2c1.2-1.3,2.5-2.5,4.1-3.5
		c1.6-1,3-0.7,4.2,0.7C439.9,165.7,439.9,167.1,438.9,168.5z"/>
	<ellipse class="st1" cx="401.9" cy="192.9" rx="2.8" ry="4.9"/>
	<g>
		<path class="st1" d="M248.6,362.4c-1.4,0.5-2.4,1.5-2.9,3c-0.5,1.5-0.8,3.8-0.8,7.1v63.6c0,3.3,0.3,5.6,0.8,7.1
			c0.5,1.5,1.5,2.4,2.9,3c1.4,0.5,3.7,0.9,6.7,1v2.6c-3.6-0.3-9.1-0.4-16.4-0.4c-6.9,0-12.4,0.1-16.3,0.4v-2.6
			c3.1-0.2,5.3-0.5,6.7-1c1.4-0.5,2.4-1.5,2.9-3c0.5-1.5,0.8-3.8,0.8-7.1v-30.8h-41.7v30.8c0,3.3,0.3,5.6,0.8,7.1
			c0.5,1.5,1.5,2.4,2.9,3c1.4,0.5,3.7,0.9,6.7,1v2.6c-3.9-0.3-9.4-0.4-16.3-0.4c-7.4,0-12.8,0.1-16.4,0.4v-2.6
			c3.1-0.2,5.3-0.5,6.7-1c1.4-0.5,2.4-1.5,2.9-3c0.5-1.5,0.8-3.8,0.8-7.1v-63.6c0-3.3-0.3-5.6-0.8-7.1c-0.5-1.5-1.5-2.4-2.9-3
			c-1.4-0.5-3.7-0.9-6.7-1v-2.6c3.6,0.3,9.1,0.4,16.4,0.4c6.8,0,12.3-0.1,16.3-0.4v2.6c-3.1,0.2-5.3,0.5-6.7,1
			c-1.4,0.5-2.4,1.5-2.9,3c-0.5,1.5-0.8,3.8-0.8,7.1v30.3H233v-30.3c0-3.3-0.3-5.6-0.8-7.1c-0.5-1.5-1.5-2.4-2.9-3
			c-1.4-0.5-3.7-0.9-6.7-1v-2.6c3.9,0.3,9.4,0.4,16.3,0.4c7.4,0,12.8-0.1,16.4-0.4v2.6C252.2,361.6,250,361.9,248.6,362.4z"/>
		<path class="st1" d="M269,446.5c-2.6-2.7-3.9-6.4-3.9-11.2c0-3.9,1-7,3.1-9.5c2.1-2.5,4.6-4.4,7.4-5.9c2.9-1.5,6.6-3,11.4-4.6
			c4.8-1.6,8.3-3.1,10.7-4.5c2.3-1.4,3.5-3.2,3.5-5.5v-8c0-5-1-8.4-3.1-10.2c-2.1-1.8-5-2.8-8.8-2.8c-6,0-10.2,1.5-12.7,4.6
			c1.7,0.4,3.1,1.3,4.3,2.7c1.2,1.4,1.7,3.1,1.7,5.1c0,2.1-0.7,3.8-2.1,5.1c-1.4,1.2-3.1,1.9-5.3,1.9c-2.4,0-4.2-0.7-5.4-2.2
			c-1.2-1.5-1.8-3.3-1.8-5.5c0-2.1,0.5-3.8,1.5-5.1c1-1.4,2.5-2.7,4.4-4.1c2.1-1.5,4.7-2.7,7.8-3.6c3.2-0.9,6.6-1.4,10.4-1.4
			c6.7,0,11.7,1.6,15.1,4.7c2.1,2,3.6,4.3,4.3,7.1c0.7,2.8,1.1,6.4,1.1,11v35.7c0,2.1,0.3,3.7,0.9,4.6c0.6,0.9,1.6,1.4,3.1,1.4
			c1,0,2-0.2,2.9-0.7c0.9-0.5,1.9-1.1,2.9-2l1.4,2.2c-2.2,1.7-4.1,2.9-5.7,3.7c-1.6,0.7-3.6,1.1-6,1.1c-4.1,0-7-1-8.6-3.1
			c-1.6-2.1-2.4-4.8-2.4-8.3c-2.6,4.3-5.5,7.3-8.9,8.9c-3.3,1.7-7.1,2.5-11.3,2.5C275.6,450.6,271.6,449.2,269,446.5z M301.1,435.7
			v-25.2c-0.8,1.2-1.8,2.2-3.2,3c-1.4,0.8-3.5,1.8-6.3,3.1c-3.3,1.4-5.9,2.7-7.9,3.9c-2,1.2-3.7,2.9-5.2,5.1
			c-1.5,2.1-2.2,4.9-2.2,8.2c0,3.9,0.9,6.8,2.8,8.7c1.9,2,4.4,3,7.4,3C292.3,445.4,297.1,442.2,301.1,435.7z"/>
		<path class="st1" d="M421.7,383.6v2.6c-1.8,0.3-3.4,1-4.7,2.4c-1.4,1.3-2.6,3.5-3.6,6.6l-18.6,55.2h-2.2l-20.3-51.6L354,450.3
			h-2.2l-21-56.8c-1.2-3-2.4-4.9-3.7-5.8c-1.2-0.9-2.5-1.3-3.8-1.3v-2.7c3.3,0.5,7.1,0.8,11.3,0.8c4.3,0,9.8-0.3,16.7-0.8v2.7
			c-3.2,0-5.5,0.3-6.9,0.8c-1.4,0.5-2.1,1.8-2.1,4c0,1.5,0.4,3.5,1.3,6l12.8,37l18.5-50.9h3l19.6,51.8l12.1-36.7
			c0.8-2.3,1.2-4.2,1.2-5.8c0-2.1-0.7-3.5-2.2-4.5c-1.5-0.9-3.9-1.5-7.3-1.8v-2.6c4.5,0.3,8.1,0.4,10.8,0.4
			C415.7,384,419,383.8,421.7,383.6z"/>
		<path class="st1" d="M446.5,383.7h19v2.6h-19v49.7c0,3.9,0.7,6.6,2.1,8.3c1.4,1.7,3.4,2.6,6.1,2.6c2.6,0,4.9-1.1,6.8-3.2
			c1.9-2.1,3.5-5.6,4.7-10.5l2.6,0.6c-2.1,11.8-7.7,17.7-16.7,17.7c-2.9,0-5.3-0.3-7.2-1c-1.9-0.7-3.6-1.8-5-3.2
			c-1.9-1.9-3.2-4.2-3.9-6.9c-0.7-2.7-1.1-6.4-1.1-11v-43h-12.3v-2.6h12.3v-19.6c4.8-0.2,8.6-0.8,11.6-1.8V383.7z"/>
		<path class="st1" d="M491.4,397.2c2.1-5.4,5.1-9.3,8.9-11.7c3.8-2.4,8.1-3.7,12.9-3.7c6,0,10.5,1.6,13.6,4.9
			c1.6,1.7,2.8,3.9,3.5,6.4c0.7,2.6,1,6,1,10.4v34.3c0,3.5,0.7,5.9,2.2,7.2c1.5,1.3,4,2,7.6,2v2.7c-7.9-0.3-13-0.5-15.4-0.5
			c-2.4,0-7.2,0.2-14.4,0.5V447c3.2,0,5.4-0.7,6.6-2c1.2-1.3,1.9-3.7,1.9-7.2v-37.1c0-4.8-0.7-8.4-2.1-11c-1.4-2.5-4.2-3.8-8.3-3.8
			c-3.5,0-6.6,1-9.3,3c-2.7,2-4.8,4.7-6.4,8.3c-1.5,3.6-2.3,7.6-2.3,12v28.6c0,3.5,0.6,5.9,1.9,7.2c1.2,1.3,3.4,2,6.6,2v2.7
			c-7.2-0.3-12-0.5-14.4-0.5c-2.4,0-7.5,0.2-15.4,0.5V447c3.6,0,6.1-0.7,7.6-2c1.5-1.3,2.2-3.7,2.2-7.2v-73.1c0-3.9-0.7-6.8-2.2-8.6
			c-1.5-1.8-4-2.7-7.6-2.7v-2.7c2.7,0.3,5.4,0.4,8,0.4c5.4,0,9.8-0.6,13.3-1.8V397.2z"/>
		<path class="st1" d="M599.3,390.5c5.3,5.8,8,14.5,8,26.2c0,11.7-2.7,20.4-8,26.2c-5.3,5.7-12.4,8.6-21.1,8.6
			c-8.7,0-15.8-2.9-21.1-8.6c-5.3-5.7-8-14.5-8-26.2c0-11.7,2.7-20.5,8-26.2c5.3-5.8,12.4-8.7,21.1-8.7
			C586.9,381.8,593.9,384.7,599.3,390.5z M566,392.3c-3,5.3-4.5,13.4-4.5,24.4s1.5,19.2,4.5,24.4c3,5.2,7.1,7.8,12.2,7.8
			c5.1,0,9.2-2.6,12.2-7.8c3-5.2,4.5-13.3,4.5-24.4s-1.5-19.2-4.5-24.4c-3-5.3-7.1-7.9-12.2-7.9C573,384.4,569,387,566,392.3z"/>
		<path class="st1" d="M665.3,384.7c2.2,2,3.3,4.4,3.3,7.2c0,2.2-0.7,4.1-2,5.7c-1.3,1.6-3.1,2.4-5.3,2.4c-1.9,0-3.5-0.6-4.8-1.8
			c-1.3-1.2-2-2.8-2-4.9c0-2.8,1.5-5.1,4.4-6.9c-0.6-0.9-1.5-1.3-2.7-1.3c-3.3,0-6.4,1.3-9.1,3.9c-2.7,2.6-4.9,5.8-6.4,9.6
			s-2.3,7.3-2.3,10.7v27.2c0,3.9,1.1,6.7,3.4,8.2c2.3,1.5,5.7,2.3,10.2,2.3v2.7l-3.1-0.1c-8.7-0.3-14.3-0.4-16.7-0.4
			c-2.2,0-7.3,0.2-15.1,0.5V447c3.6,0,6.1-0.7,7.6-2c1.5-1.3,2.2-3.7,2.2-7.2v-40.2c0-3.9-0.7-6.8-2.2-8.6c-1.5-1.8-4-2.7-7.6-2.7
			v-2.7c2.7,0.3,5.4,0.4,8,0.4c5.4,0,9.8-0.6,13.3-1.8v16c1.5-4.3,4-8.1,7.4-11.4c3.4-3.3,7.1-5,11.2-5
			C660.4,381.8,663.2,382.8,665.3,384.7z"/>
		<path class="st1" d="M730.9,386.7c1.6,1.7,2.8,3.9,3.5,6.4c0.7,2.6,1,6,1,10.4v34.3c0,3.5,0.7,5.9,2.2,7.2c1.5,1.3,4,2,7.6,2v2.7
			c-7.9-0.3-13-0.5-15.4-0.5c-2.4,0-7.2,0.2-14.4,0.5V447c3.2,0,5.4-0.7,6.6-2c1.2-1.3,1.9-3.7,1.9-7.2v-37.1c0-4.8-0.7-8.4-2.1-11
			c-1.4-2.5-4.2-3.8-8.3-3.8c-3.5,0-6.6,1-9.4,3.1c-2.7,2.1-4.9,4.9-6.3,8.4c-1.5,3.6-2.2,7.5-2.2,11.9v28.5c0,3.5,0.6,5.9,1.9,7.2
			c1.2,1.3,3.4,2,6.6,2v2.7c-7.2-0.3-12-0.5-14.4-0.5c-2.4,0-7.5,0.2-15.4,0.5V447c3.6,0,6.1-0.7,7.6-2c1.5-1.3,2.2-3.7,2.2-7.2
			v-40.2c0-3.9-0.7-6.8-2.2-8.6c-1.5-1.8-4-2.7-7.6-2.7v-2.7c2.7,0.3,5.4,0.4,8,0.4c5.4,0,9.8-0.6,13.3-1.8v15.1
			c2.1-5.5,5.1-9.4,8.9-11.9c3.8-2.4,8.1-3.7,12.9-3.7C723.2,381.8,727.8,383.4,730.9,386.7z"/>
	</g>
	<g>
		<path class="st1" d="M66.9,368c0,2.1,0.1,3.7,0.2,5h-1.4c-0.3-3.2-0.7-5.5-1.2-7c-0.5-1.5-1.4-2.7-2.6-3.4
			c-1.2-0.7-3.1-1.1-5.7-1.1h-3.3v35c0,1.7,0.2,3,0.5,3.8c0.3,0.8,0.9,1.3,1.7,1.6c0.8,0.3,2.2,0.5,4,0.6v1.2
			c-2.1-0.1-5.1-0.2-9-0.2c-4.1,0-7.1,0.1-9.1,0.2v-1.2c1.8-0.1,3.2-0.3,4-0.6c0.8-0.3,1.4-0.8,1.7-1.6c0.3-0.8,0.5-2,0.5-3.8v-35
			h-3.3c-2.5,0-4.4,0.4-5.7,1.1s-2.1,1.8-2.6,3.4c-0.5,1.5-0.9,3.9-1.2,7H33c0.1-1.3,0.2-3,0.2-5c0-2.3-0.1-5-0.4-7.9
			c3.4,0.1,9.2,0.2,17.3,0.2c8.1,0,13.9-0.1,17.3-0.2C67,363,66.9,365.6,66.9,368z"/>
		<path class="st1" d="M109.9,361.8c-0.7,0.2-1.1,0.7-1.4,1.4c-0.2,0.7-0.4,1.8-0.4,3.4v30.5c0,1.6,0.1,2.7,0.4,3.4
			c0.2,0.7,0.7,1.2,1.4,1.4c0.7,0.2,1.8,0.4,3.2,0.5v1.2c-1.7-0.1-4.3-0.2-7.9-0.2c-3.3,0-5.9,0.1-7.8,0.2v-1.2
			c1.5-0.1,2.6-0.2,3.2-0.5c0.7-0.2,1.1-0.7,1.4-1.4c0.2-0.7,0.4-1.8,0.4-3.4v-14.8h-20v14.8c0,1.6,0.1,2.7,0.4,3.4
			c0.2,0.7,0.7,1.2,1.4,1.4c0.7,0.2,1.8,0.4,3.2,0.5v1.2c-1.9-0.1-4.5-0.2-7.8-0.2c-3.5,0-6.1,0.1-7.9,0.2v-1.2
			c1.5-0.1,2.6-0.2,3.2-0.5c0.7-0.2,1.1-0.7,1.4-1.4c0.2-0.7,0.4-1.8,0.4-3.4v-30.5c0-1.6-0.1-2.7-0.4-3.4c-0.2-0.7-0.7-1.2-1.4-1.4
			c-0.7-0.2-1.8-0.4-3.2-0.5v-1.2c1.7,0.1,4.3,0.2,7.9,0.2c3.3,0,5.9-0.1,7.8-0.2v1.2c-1.5,0.1-2.6,0.2-3.2,0.5
			c-0.7,0.2-1.1,0.7-1.4,1.4c-0.2,0.7-0.4,1.8-0.4,3.4v14.5h20v-14.5c0-1.6-0.1-2.7-0.4-3.4c-0.2-0.7-0.7-1.2-1.4-1.4
			c-0.7-0.2-1.8-0.4-3.2-0.5v-1.2c1.9,0.1,4.5,0.2,7.8,0.2c3.5,0,6.2-0.1,7.9-0.2v1.2C111.6,361.4,110.5,361.6,109.9,361.8z"/>
		<path class="st1" d="M150.2,403.6c-2.8-0.1-7.5-0.2-14.1-0.2c-7.9,0-13.8,0.1-17.8,0.2v-1.2c1.5-0.1,2.6-0.2,3.2-0.5
			c0.7-0.2,1.1-0.7,1.4-1.4c0.2-0.7,0.4-1.8,0.4-3.4v-30.5c0-1.6-0.1-2.7-0.4-3.4c-0.2-0.7-0.7-1.2-1.4-1.4
			c-0.7-0.2-1.8-0.4-3.2-0.5v-1.2c4,0.1,10,0.2,17.8,0.2c6,0,10.3-0.1,12.9-0.2c-0.3,2.7-0.4,5.1-0.4,7.3c0,1.6,0.1,2.9,0.2,3.8
			h-1.4c-0.3-2.7-0.7-4.6-1.1-5.9c-0.4-1.3-1.2-2.2-2.3-2.8c-1.1-0.6-2.7-0.9-4.9-0.9h-5.1c-1.5,0-2.6,0.1-3.2,0.3
			c-0.7,0.2-1.1,0.7-1.4,1.4c-0.2,0.7-0.4,1.8-0.4,3.4v14.5h4.1c1.4,0,2.5-0.3,3.3-1c0.8-0.7,1.3-1.5,1.6-2.4s0.5-2.1,0.6-3.5
			l0.2-1.2h1.4c-0.1,1.7-0.2,3.7-0.2,5.8v3c0,2.1,0.1,5,0.4,8.7h-1.4c0-0.3-0.2-1.3-0.4-3c-0.2-1.7-0.8-3-1.7-3.8
			c-0.9-0.9-2.2-1.3-3.8-1.3H129v14.8c0,1.6,0.1,2.7,0.4,3.4c0.2,0.7,0.7,1.2,1.4,1.4c0.7,0.2,1.8,0.3,3.2,0.3h4.5
			c2.5,0,4.5-0.3,5.8-1c1.3-0.7,2.3-1.8,2.9-3.3c0.6-1.5,1.1-3.7,1.4-6.6h1.4c-0.1,1.1-0.2,2.6-0.2,4.4
			C149.8,398.1,149.9,400.7,150.2,403.6z"/>
	</g>
	<g>
		<path class="st1" d="M373.6,468.1c1.7-0.4,3.9-0.6,6.2-0.6c3.8,0,6.1,0.8,7.8,2.4c1.1,1.1,1.7,2.6,1.7,4.5c0,2.7-2.1,5.2-4.9,6.1
			v0.1c2,0.4,6,2.2,6,6.9c0,2.3-0.8,3.9-2.1,5.2c-1.9,1.9-5.1,2.7-9.5,2.7c-2.1,0-4-0.2-5.2-0.2V468.1z M375.6,479.9h4.8
			c4.3,0,6.8-2.4,6.8-5.4c0-4.2-3.5-5.4-7.6-5.4c-2.2,0-3.4,0.2-4,0.3V479.9z M375.6,493.6c0.9,0.2,2.2,0.2,3.9,0.2
			c4.3,0,8.8-1.3,8.8-6.2c0-4.3-3.9-6.1-8.6-6.1h-4.1V493.6z"/>
		<path class="st1" d="M425.8,481.2c0,9.5-6.8,14.6-14,14.6c-7.9,0-13.7-5.8-13.7-13.9c0-8.7,6.1-14.6,14-14.6
			C420.2,467.2,425.8,473.2,425.8,481.2z M400.2,481.8c0,6.5,4.5,12.4,11.7,12.4c7.3,0,11.8-5.5,11.8-12.8c0-6-3.9-12.4-11.7-12.4
			C404.1,468.9,400.2,475,400.2,481.8z"/>
		<path class="st1" d="M437,467.7v15.9c0,7.5,3.7,10.5,8.3,10.5c5.1,0,8.8-3.2,8.8-10.5v-15.9h2v15.8c0,8.9-5,12.3-10.9,12.3
			c-5.4,0-10.2-3.1-10.2-12.1v-16H437z"/>
		<path class="st1" d="M473.2,469.4H463v-1.7h22.5v1.7h-10.3v25.9h-2V469.4z"/>
		<path class="st1" d="M494.3,467.7v27.6h-2v-27.6H494.3z"/>
		<path class="st1" d="M531,499c-4.1-0.9-8.3-1.9-11.8-2.8c-0.6-0.2-1.1-0.4-1.8-0.4c-7.6-0.2-13.8-5.4-13.8-13.9
			c0-8.8,6.1-14.7,14-14.7c8.1,0,13.7,6,13.7,13.9c0,7.5-4,12.2-9.9,14v0.2c3.5,0.7,7.4,1.5,10.2,1.9L531,499z M529.2,481.3
			c0-6-3.9-12.4-11.6-12.4c-8,0-11.9,6.2-11.9,13c0,6.5,4.5,12.3,11.6,12.3C524.6,494.2,529.2,488.6,529.2,481.3z"/>
		<path class="st1" d="M542.5,467.7v15.9c0,7.5,3.7,10.5,8.3,10.5c5.1,0,8.8-3.2,8.8-10.5v-15.9h2v15.8c0,8.9-5,12.3-10.9,12.3
			c-5.4,0-10.2-3.1-10.2-12.1v-16H542.5z"/>
		<path class="st1" d="M587.1,481.6h-12.3v12h13.7v1.7h-15.7v-27.6h15v1.7h-13v10.5h12.3V481.6z"/>
		<path class="st1" d="M613.8,467.7v12.1H631v-12.1h2v27.6h-2v-13.8h-17.3v13.8h-2v-27.6H613.8z"/>
		<path class="st1" d="M670,481.2c0,9.5-6.8,14.6-14,14.6c-7.9,0-13.7-5.8-13.7-13.9c0-8.7,6.1-14.6,14-14.6
			C664.4,467.2,670,473.2,670,481.2z M644.4,481.8c0,6.5,4.5,12.4,11.7,12.4c7.3,0,11.8-5.5,11.8-12.8c0-6-3.9-12.4-11.7-12.4
			C648.3,468.9,644.4,475,644.4,481.8z"/>
		<path class="st1" d="M684.2,469.4H674v-1.7h22.5v1.7h-10.3v25.9h-2V469.4z"/>
		<path class="st1" d="M717.6,481.6h-12.3v12H719v1.7h-15.7v-27.6h15v1.7h-13v10.5h12.3V481.6z"/>
		<path class="st1" d="M728.3,467.7h2v25.9H744v1.7h-15.7V467.7z"/>
	</g>
	<polygon class="st1" points="356.5,483.5 30.9,482.2 356.5,480.9 356.5,483.5 	"/>
	<path class="st1" d="M446.8,305c15.3-5.7,28.8-15.1,38.1-29.3c35.2-56.8,21-136.1-2.1-195.2c-3.4-8.5-7-16.9-11.1-25
		c-14,9.4-27.1,20.2-39.3,31.8c-1.2,1.1-2.3,2.2-3.4,3.4c21.3,32.7,37.5,68.6,44.2,107.2C478.7,234.2,476.1,278.9,446.8,305z"/>
	<path class="st1" d="M244.5,216.3c4.8,25.9,17,50,35.5,68.5c9.9,10.4,21.5,16.3,34,19.3c-39.3-30.5-44.8-92-37.6-139.8
		c1.9-12.3,4.4-24.4,7.6-36.4c-9-5.2-18.3-9.9-27.7-13.9C243.5,146.2,238.3,182.1,244.5,216.3z"/>
	<path class="st1" d="M472.3,304.1c12.5-3,24.1-8.9,34-19.3c18.5-18.5,30.8-42.6,35.5-68.5c6.2-34.2,1-70.1-11.7-102.3
		c-9.5,4-18.7,8.8-27.7,13.9c3.1,12,5.7,24.1,7.6,36.4C517.2,212.1,511.7,273.6,472.3,304.1z"/>
	<path class="st1" d="M233.8,163.9c-5.6-1.9-11.4-3.8-17.1-5.2c-11.4,42.4-9.9,87.6,20.3,121.9c18,19.6,41.9,29.1,67.1,31.2
		c-20.1-8-35.1-23.9-46.7-43.3c-18.6-30.9-23-67.3-18.3-102.6C237.4,165.3,235.6,164.6,233.8,163.9z"/>
	<path class="st1" d="M528.9,268.5c-11.6,19.4-26.6,35.3-46.7,43.3c25.3-2,49.1-11.5,67.1-31.2c30.3-34.3,31.8-79.6,20.3-121.9
		c-5.7,1.5-11.5,3.3-17.1,5.2c-1.8,0.6-3.6,1.3-5.4,2C551.8,201.2,547.5,237.6,528.9,268.5z"/>
</g>
<g>
	<g>
		<path class="st1" d="M1267.8,862.8c-1.5-25,4.6-49.7,15.1-72.2c4.7-10.3,10.2-20.1,16.3-29.6c-1-1-2.1-2.1-3.2-3.1
			c-8.5-8-17.6-15.6-27.2-22.1c-2.8,5.6-5.3,11.5-7.7,17.3c-16,40.9-25.8,95.9-1.5,135.3c6.7,10.3,16.6,16.9,27.8,20.8
			C1274.5,898,1268.5,879.8,1267.8,862.8z"/>
	</g>
	<path class="st1" d="M1346.3,762.6c-6.6-10.8-14-21.2-22.2-30.8c-15.8,17.7-28.5,38.4-37.6,60.3c-5.6,13.7-9.7,28.3-11.4,43.1
		c2.5-5.8,6.2-11.1,11.2-16.2c1.2-1.2,2.6-2.3,4-3.3c8.4-5.4,17.3-7.2,26.8-5c13.7,3.2,19.9,14.8,16.1,27.8c-0.9,3-1.4,5.7-0.7,8.6
		c0.1,0.4,0.1,0.9,0.1,1.3c-0.2,2.3-0.3,4.7-2.2,6.5c-0.3,0.3-0.7,0.8-1.2,0.6c-0.5-0.2-0.4-0.7-0.4-1.1c-0.2-2.2-0.7-4.3-1.7-6.3
		c-0.6-1.2-1.1-2.4-1.9-3.5c-0.8-1.1-2.6-1.8-2.6-1.8c-5.1-2-10.8-9.3-8.7-16.6c0.1-0.4,0.2-0.8,0.3-1.1c0.4-1.4-0.5-2.7-2-2.8
		c-4.5-0.4-8.8,0.6-12.4,3.1c-7,4.8-6.1,14.2-3.3,21.1c3.1,7.9,9.3,14.5,16.6,18.6c4.9,2.8,10.4,4.5,16,4.7c2.2,0.1,4.5-0.1,6.7-0.4
		c8.1-1.2,28.2-9,38.4-29.5C1371.8,812.6,1360.4,785.9,1346.3,762.6z M1328,813.4c0.4-3.5-0.3-6.8-1.6-10c-0.3-0.8-0.4-1.7-0.4-2.6
		c0-1.2,0.2-2.4,1.7-2.6c1.5-0.2,2.1,0.8,2.5,2.1c1.1,3.5,0.4,6.9-0.5,10.2C1329.3,811.6,1329.1,812.7,1328,813.4z M1330.8,814.6
		c-0.4-0.6,0-1,0.1-1.3c1.7-4.5,2.6-9,2.4-13.8c0-1.3,0.3-2.5,0.7-3.6c0.4-1.2,1.3-2.1,2.7-1.9c1.4,0.2,2.2,1.2,2.1,2.6
		c0,0.9,0,1.9-0.2,2.7c-1,4.6-2.8,8.9-5.6,12.7C1332.5,813,1331.8,813.9,1330.8,814.6z M1332.8,817.6c0.1-0.3,0-0.4,0.1-0.5
		c5.5-6.7,8.4-14.4,9.4-22.9c0.1-0.5,0.1-0.9,0.2-1.4c0.6-3.4,6-3,5.8,0.5c0,0.3-0.1,0.5-0.1,0.8c-2,8.3-5.9,15.6-12.3,21.4
		C1335,816.3,1334.1,817.2,1332.8,817.6z M1338,816.9c4.4-4.3,8.4-8.8,10.4-14.7c0.4-1.2,0.9-2.4,1.5-3.6c0.5-1.1,1.5-1.6,2.7-1.2
		c1.2,0.3,1.6,1.3,1.6,2.5c-0.1,1.2-0.6,2.2-1.1,3.2c-2.8,5.8-7.2,10.1-12.3,13.8c-1.8,1.3-3.7,2.7-6,3.2
		C1335.6,818.7,1336.9,817.9,1338,816.9z M1355,814.2c-0.5,0.7-1.1,1.3-1.8,1.9c-3.4,2.9-7.6,4.4-11.8,5.6c-1.8,0.5-3.7,1.2-6,1
		c0.3-0.3,0.4-0.5,0.5-0.6c0.2-0.1,0.4-0.2,0.6-0.3c4.8-1.9,9.1-4.6,12.6-8.5c0.8-0.9,1.8-1.8,2.8-2.4c1.1-0.7,2.1-0.5,2.9,0.5
		C1355.7,812.3,1355.7,813.3,1355,814.2z"/>
	<ellipse class="st1" cx="1329.4" cy="831.1" rx="1.9" ry="3.4"/>
	<g>
		<path class="st1" d="M1223.1,948.6c-1,0.4-1.6,1-2,2c-0.4,1-0.5,2.6-0.5,4.9v44.1c0,2.3,0.2,3.9,0.5,4.9c0.4,1,1,1.7,2,2
			c1,0.4,2.5,0.6,4.7,0.7v1.8c-2.5-0.2-6.3-0.3-11.4-0.3c-4.8,0-8.6,0.1-11.3,0.3v-1.8c2.1-0.1,3.7-0.4,4.7-0.7c1-0.4,1.6-1,2-2
			c0.4-1,0.5-2.6,0.5-4.9v-21.3h-28.9v21.3c0,2.3,0.2,3.9,0.5,4.9c0.4,1,1,1.7,2,2c1,0.4,2.5,0.6,4.7,0.7v1.8
			c-2.7-0.2-6.5-0.3-11.3-0.3c-5.1,0-8.9,0.1-11.4,0.3v-1.8c2.1-0.1,3.7-0.4,4.7-0.7c1-0.4,1.6-1,2-2c0.4-1,0.5-2.6,0.5-4.9v-44.1
			c0-2.3-0.2-3.9-0.5-4.9c-0.4-1-1-1.7-2-2c-1-0.4-2.5-0.6-4.7-0.7v-1.8c2.5,0.2,6.3,0.3,11.4,0.3c4.7,0,8.5-0.1,11.3-0.3v1.8
			c-2.1,0.1-3.7,0.4-4.7,0.7s-1.6,1-2,2c-0.4,1-0.5,2.6-0.5,4.9v21h28.9v-21c0-2.3-0.2-3.9-0.5-4.9c-0.4-1-1-1.7-2-2
			c-1-0.4-2.5-0.6-4.7-0.7v-1.8c2.7,0.2,6.5,0.3,11.3,0.3c5.1,0,8.9-0.1,11.4-0.3v1.8C1225.6,948,1224.1,948.2,1223.1,948.6z"/>
		<path class="st1" d="M1237.2,1006.9c-1.8-1.9-2.7-4.5-2.7-7.8c0-2.7,0.7-4.9,2.2-6.6c1.5-1.7,3.2-3.1,5.2-4.1c2-1,4.6-2.1,7.9-3.2
			c3.3-1.1,5.8-2.2,7.4-3.1c1.6-0.9,2.4-2.2,2.4-3.8v-5.5c0-3.4-0.7-5.8-2.2-7.1c-1.5-1.3-3.5-1.9-6.1-1.9c-4.2,0-7.1,1.1-8.8,3.2
			c1.2,0.3,2.2,0.9,3,1.9c0.8,0.9,1.2,2.1,1.2,3.6c0,1.5-0.5,2.7-1.4,3.5c-0.9,0.9-2.2,1.3-3.6,1.3c-1.7,0-2.9-0.5-3.7-1.6
			c-0.8-1-1.2-2.3-1.2-3.8c0-1.4,0.3-2.6,1-3.6c0.7-0.9,1.7-1.9,3.1-2.8c1.4-1,3.2-1.8,5.4-2.5c2.2-0.7,4.6-1,7.2-1
			c4.6,0,8.1,1.1,10.5,3.3c1.5,1.4,2.5,3,3,4.9c0.5,1.9,0.8,4.5,0.8,7.6v24.7c0,1.5,0.2,2.5,0.6,3.2c0.4,0.7,1.1,1,2.1,1
			c0.7,0,1.4-0.2,2-0.5c0.6-0.3,1.3-0.8,2-1.4l1,1.5c-1.5,1.2-2.9,2-4,2.5c-1.1,0.5-2.5,0.8-4.1,0.8c-2.8,0-4.8-0.7-6-2.1
			c-1.1-1.4-1.7-3.3-1.7-5.8c-1.8,3-3.8,5-6.1,6.2c-2.3,1.2-4.9,1.7-7.8,1.7C1241.8,1009.7,1239,1008.8,1237.2,1006.9z
			 M1259.5,999.4v-17.4c-0.5,0.8-1.3,1.5-2.2,2s-2.4,1.2-4.4,2.1c-2.3,0.9-4.1,1.9-5.5,2.7c-1.4,0.9-2.6,2-3.6,3.5
			c-1,1.5-1.5,3.4-1.5,5.7c0,2.7,0.7,4.7,2,6c1.3,1.4,3,2,5.2,2C1253.4,1006.1,1256.7,1003.9,1259.5,999.4z"/>
		<path class="st1" d="M1343.1,963.3v1.8c-1.2,0.2-2.3,0.7-3.3,1.6c-0.9,0.9-1.8,2.4-2.5,4.6l-12.9,38.2h-1.5l-14.1-35.7l-12.7,35.7
			h-1.5l-14.6-39.4c-0.8-2.1-1.7-3.4-2.5-4c-0.9-0.6-1.7-0.9-2.6-0.9v-1.9c2.3,0.4,4.9,0.5,7.8,0.5c3,0,6.8-0.2,11.6-0.5v1.9
			c-2.2,0-3.8,0.2-4.8,0.5c-1,0.4-1.5,1.3-1.5,2.8c0,1.1,0.3,2.5,0.9,4.2l8.9,25.6l12.8-35.3h2l13.6,35.9l8.4-25.4
			c0.5-1.6,0.8-2.9,0.8-4c0-1.4-0.5-2.5-1.5-3.1c-1-0.7-2.7-1.1-5.1-1.2v-1.8c3.1,0.2,5.6,0.3,7.5,0.3
			C1338.9,963.5,1341.2,963.4,1343.1,963.3z"/>
		<path class="st1" d="M1360.3,963.4h13.2v1.8h-13.2v34.4c0,2.7,0.5,4.6,1.5,5.8c1,1.2,2.4,1.8,4.2,1.8c1.8,0,3.4-0.7,4.7-2.2
			c1.3-1.5,2.4-3.9,3.3-7.3l1.8,0.4c-1.5,8.2-5.3,12.3-11.6,12.3c-2,0-3.7-0.2-5-0.7c-1.3-0.5-2.5-1.2-3.5-2.2
			c-1.3-1.3-2.2-2.9-2.7-4.8c-0.5-1.9-0.8-4.4-0.8-7.6v-29.8h-8.5v-1.8h8.5v-13.6c3.3-0.1,6-0.5,8-1.2V963.4z"/>
		<path class="st1" d="M1391.4,972.7c1.5-3.7,3.5-6.4,6.2-8.1c2.6-1.7,5.6-2.5,8.9-2.5c4.1,0,7.3,1.1,9.4,3.4
			c1.1,1.2,1.9,2.7,2.4,4.4c0.5,1.8,0.7,4.2,0.7,7.2v23.7c0,2.4,0.5,4.1,1.5,5c1,0.9,2.8,1.4,5.2,1.4v1.9c-5.5-0.2-9-0.4-10.7-0.4
			c-1.7,0-5,0.1-10,0.4v-1.9c2.2,0,3.7-0.5,4.6-1.4c0.9-0.9,1.3-2.6,1.3-5v-25.7c0-3.3-0.5-5.9-1.4-7.6c-0.9-1.7-2.9-2.6-5.8-2.6
			c-2.4,0-4.6,0.7-6.4,2c-1.9,1.4-3.3,3.3-4.4,5.7c-1.1,2.5-1.6,5.2-1.6,8.3v19.8c0,2.4,0.4,4.1,1.3,5c0.9,0.9,2.4,1.4,4.6,1.4v1.9
			c-5-0.2-8.3-0.4-10-0.4c-1.7,0-5.2,0.1-10.7,0.4v-1.9c2.5,0,4.2-0.5,5.2-1.4c1-0.9,1.5-2.6,1.5-5v-50.7c0-2.7-0.5-4.7-1.5-6
			c-1-1.2-2.8-1.9-5.2-1.9v-1.9c1.9,0.2,3.7,0.3,5.5,0.3c3.7,0,6.8-0.4,9.2-1.2V972.7z"/>
		<path class="st1" d="M1466.1,968c3.7,4,5.6,10.1,5.6,18.2c0,8.1-1.9,14.2-5.6,18.1c-3.7,4-8.6,6-14.6,6c-6,0-10.9-2-14.6-6
			c-3.7-4-5.6-10-5.6-18.1c0-8.1,1.9-14.2,5.6-18.2c3.7-4,8.6-6,14.6-6C1457.5,962,1462.4,964,1466.1,968z M1443,969.3
			c-2.1,3.6-3.1,9.3-3.1,16.9s1,13.3,3.1,16.9c2.1,3.6,4.9,5.4,8.4,5.4c3.6,0,6.4-1.8,8.4-5.4c2.1-3.6,3.1-9.2,3.1-16.9
			s-1-13.3-3.1-16.9c-2.1-3.6-4.9-5.5-8.4-5.5C1447.9,963.8,1445.1,965.6,1443,969.3z"/>
		<path class="st1" d="M1511.9,964.1c1.5,1.4,2.3,3,2.3,5c0,1.5-0.5,2.9-1.4,4c-0.9,1.1-2.1,1.6-3.7,1.6c-1.3,0-2.4-0.4-3.3-1.2
			c-0.9-0.8-1.4-2-1.4-3.4c0-2,1-3.6,3-4.8c-0.4-0.6-1-0.9-1.9-0.9c-2.3,0-4.4,0.9-6.3,2.7c-1.9,1.8-3.4,4-4.4,6.6s-1.6,5.1-1.6,7.4
			v18.9c0,2.7,0.8,4.6,2.4,5.7c1.6,1.1,3.9,1.6,7.1,1.6v1.9l-2.1-0.1c-6-0.2-9.9-0.3-11.6-0.3c-1.5,0-5,0.1-10.5,0.4v-1.9
			c2.5,0,4.2-0.5,5.2-1.4c1-0.9,1.5-2.6,1.5-5V973c0-2.7-0.5-4.7-1.5-6c-1-1.2-2.8-1.9-5.2-1.9v-1.9c1.9,0.2,3.7,0.3,5.5,0.3
			c3.7,0,6.8-0.4,9.2-1.2v11.1c1.1-3,2.8-5.6,5.1-7.9c2.3-2.3,4.9-3.5,7.8-3.5C1508.5,962,1510.4,962.7,1511.9,964.1z"/>
		<path class="st1" d="M1557.3,965.4c1.1,1.2,1.9,2.7,2.4,4.4c0.5,1.8,0.7,4.2,0.7,7.2v23.7c0,2.4,0.5,4.1,1.5,5
			c1,0.9,2.8,1.4,5.2,1.4v1.9c-5.5-0.2-9-0.4-10.7-0.4c-1.7,0-5,0.1-10,0.4v-1.9c2.2,0,3.7-0.5,4.6-1.4c0.9-0.9,1.3-2.6,1.3-5v-25.7
			c0-3.3-0.5-5.9-1.4-7.6c-0.9-1.7-2.9-2.6-5.8-2.6c-2.4,0-4.6,0.7-6.5,2.1s-3.4,3.4-4.4,5.8c-1,2.5-1.6,5.2-1.6,8.2v19.7
			c0,2.4,0.4,4.1,1.3,5c0.9,0.9,2.4,1.4,4.6,1.4v1.9c-5-0.2-8.3-0.4-10-0.4c-1.7,0-5.2,0.1-10.7,0.4v-1.9c2.5,0,4.2-0.5,5.2-1.4
			c1-0.9,1.5-2.6,1.5-5V973c0-2.7-0.5-4.7-1.5-6c-1-1.2-2.8-1.9-5.2-1.9v-1.9c1.9,0.2,3.7,0.3,5.5,0.3c3.7,0,6.8-0.4,9.2-1.2v10.5
			c1.5-3.8,3.5-6.5,6.2-8.2c2.6-1.7,5.6-2.5,8.9-2.5C1552,962,1555.2,963.1,1557.3,965.4z"/>
	</g>
	<g>
		<path class="st1" d="M1097.2,952.4c0,1.4,0,2.6,0.1,3.5h-1c-0.2-2.2-0.5-3.8-0.9-4.9c-0.3-1.1-0.9-1.8-1.8-2.3
			c-0.9-0.5-2.2-0.7-3.9-0.7h-2.3v24.3c0,1.2,0.1,2.1,0.3,2.6c0.2,0.5,0.6,0.9,1.2,1.1c0.6,0.2,1.5,0.3,2.8,0.4v0.9
			c-1.5-0.1-3.6-0.1-6.3-0.1c-2.8,0-4.9,0-6.3,0.1v-0.9c1.3-0.1,2.2-0.2,2.8-0.4c0.6-0.2,1-0.6,1.2-1.1c0.2-0.5,0.3-1.4,0.3-2.6V948
			h-2.3c-1.8,0-3.1,0.2-3.9,0.7c-0.9,0.5-1.4,1.3-1.8,2.3c-0.3,1.1-0.6,2.7-0.9,4.9h-1c0.1-0.9,0.1-2.1,0.1-3.5
			c0-1.6-0.1-3.4-0.3-5.5c2.4,0.1,6.4,0.1,12,0.1c5.6,0,9.6,0,12-0.1C1097.3,949,1097.2,950.8,1097.2,952.4z"/>
		<path class="st1" d="M1127,948.2c-0.5,0.2-0.8,0.5-1,1c-0.2,0.5-0.3,1.3-0.3,2.3v21.1c0,1.1,0.1,1.9,0.3,2.3c0.2,0.5,0.5,0.8,1,1
			c0.5,0.2,1.2,0.3,2.2,0.3v0.9c-1.2-0.1-3-0.1-5.5-0.1c-2.3,0-4.1,0-5.4,0.1v-0.9c1-0.1,1.8-0.2,2.2-0.3c0.5-0.2,0.8-0.5,1-1
			s0.3-1.3,0.3-2.3v-10.2h-13.9v10.2c0,1.1,0.1,1.9,0.3,2.3c0.2,0.5,0.5,0.8,1,1c0.5,0.2,1.2,0.3,2.2,0.3v0.9
			c-1.3-0.1-3.1-0.1-5.4-0.1c-2.4,0-4.3,0-5.5,0.1v-0.9c1-0.1,1.8-0.2,2.2-0.3c0.5-0.2,0.8-0.5,1-1s0.3-1.3,0.3-2.3v-21.1
			c0-1.1-0.1-1.9-0.3-2.3c-0.2-0.5-0.5-0.8-1-1c-0.5-0.2-1.2-0.3-2.2-0.3V947c1.2,0.1,3,0.1,5.5,0.1c2.3,0,4.1,0,5.4-0.1v0.9
			c-1,0.1-1.8,0.2-2.2,0.3c-0.5,0.2-0.8,0.5-1,1c-0.2,0.5-0.3,1.3-0.3,2.3v10.1h13.9v-10.1c0-1.1-0.1-1.9-0.3-2.3
			c-0.2-0.5-0.5-0.8-1-1c-0.5-0.2-1.2-0.3-2.2-0.3V947c1.3,0.1,3.1,0.1,5.4,0.1c2.4,0,4.3,0,5.5-0.1v0.9
			C1128.2,947.9,1127.4,948,1127,948.2z"/>
		<path class="st1" d="M1154.9,977.2c-1.9-0.1-5.2-0.1-9.8-0.1c-5.5,0-9.6,0-12.4,0.1v-0.9c1-0.1,1.8-0.2,2.2-0.3
			c0.5-0.2,0.8-0.5,1-1c0.2-0.5,0.3-1.3,0.3-2.3v-21.1c0-1.1-0.1-1.9-0.3-2.3c-0.2-0.5-0.5-0.8-1-1c-0.5-0.2-1.2-0.3-2.2-0.3V947
			c2.8,0.1,6.9,0.1,12.4,0.1c4.2,0,7.1,0,8.9-0.1c-0.2,1.9-0.3,3.6-0.3,5c0,1.1,0,2,0.1,2.6h-1c-0.2-1.8-0.5-3.2-0.8-4.1
			c-0.3-0.9-0.8-1.5-1.6-2c-0.7-0.4-1.9-0.6-3.4-0.6h-3.5c-1,0-1.8,0.1-2.2,0.2c-0.5,0.2-0.8,0.5-1,1c-0.2,0.5-0.3,1.3-0.3,2.3v10.1
			h2.8c1,0,1.8-0.2,2.3-0.7c0.5-0.5,0.9-1,1.1-1.7s0.3-1.4,0.4-2.4l0.1-0.9h1c-0.1,1.2-0.1,2.5-0.1,4v2c0,1.4,0.1,3.5,0.3,6.1h-1
			c0-0.2-0.1-0.9-0.3-2.1c-0.1-1.2-0.5-2.1-1.2-2.7c-0.6-0.6-1.5-0.9-2.7-0.9h-2.8v10.2c0,1.1,0.1,1.9,0.3,2.3c0.2,0.5,0.5,0.8,1,1
			c0.5,0.2,1.2,0.2,2.2,0.2h3.1c1.8,0,3.1-0.2,4-0.7c0.9-0.5,1.6-1.2,2-2.3c0.4-1,0.7-2.6,0.9-4.6h1c-0.1,0.8-0.1,1.8-0.1,3.1
			C1154.6,973.3,1154.7,975.1,1154.9,977.2z"/>
	</g>
	<g>
		<path class="st1" d="M1309.8,1021.8c1.2-0.3,2.7-0.4,4.3-0.4c2.6,0,4.3,0.5,5.4,1.7c0.8,0.8,1.2,1.8,1.2,3.1
			c0,1.9-1.4,3.6-3.4,4.3v0.1c1.4,0.3,4.2,1.6,4.2,4.8c0,1.6-0.6,2.7-1.4,3.6c-1.3,1.3-3.5,1.9-6.6,1.9c-1.5,0-2.7-0.1-3.6-0.2
			V1021.8z M1311.1,1030h3.3c3,0,4.7-1.7,4.7-3.7c0-2.9-2.4-3.7-5.2-3.7c-1.5,0-2.3,0.1-2.8,0.2V1030z M1311.1,1039.5
			c0.7,0.1,1.6,0.2,2.7,0.2c3,0,6.1-0.9,6.1-4.3c0-3-2.7-4.3-6-4.3h-2.9V1039.5z"/>
		<path class="st1" d="M1345.9,1030.9c0,6.6-4.7,10.1-9.7,10.1c-5.4,0-9.5-4.1-9.5-9.6c0-6,4.3-10.1,9.7-10.1
			C1342,1021.2,1345.9,1025.4,1345.9,1030.9z M1328.2,1031.3c0,4.5,3.1,8.6,8.1,8.6c5,0,8.2-3.8,8.2-8.9c0-4.1-2.7-8.6-8.1-8.6
			C1330.9,1022.4,1328.2,1026.6,1328.2,1031.3z"/>
		<path class="st1" d="M1353.7,1021.6v11c0,5.2,2.6,7.3,5.8,7.3c3.5,0,6.1-2.2,6.1-7.3v-11h1.4v10.9c0,6.2-3.5,8.5-7.5,8.5
			c-3.7,0-7.1-2.2-7.1-8.4v-11.1H1353.7z"/>
		<path class="st1" d="M1378.8,1022.7h-7.1v-1.2h15.6v1.2h-7.1v17.9h-1.4V1022.7z"/>
		<path class="st1" d="M1393.4,1021.6v19.1h-1.4v-19.1H1393.4z"/>
		<path class="st1" d="M1418.8,1043.3c-2.9-0.6-5.8-1.3-8.2-2c-0.4-0.1-0.8-0.3-1.2-0.3c-5.3-0.1-9.6-3.8-9.6-9.6
			c0-6.1,4.3-10.2,9.7-10.2c5.6,0,9.5,4.1,9.5,9.6c0,5.2-2.8,8.5-6.9,9.7v0.1c2.4,0.5,5.1,1,7.1,1.3L1418.8,1043.3z M1417.6,1031
			c0-4.1-2.7-8.6-8-8.6c-5.5,0-8.3,4.3-8.3,9c0,4.5,3.1,8.5,8.1,8.5C1414.4,1039.9,1417.6,1036.1,1417.6,1031z"/>
		<path class="st1" d="M1426.8,1021.6v11c0,5.2,2.6,7.3,5.8,7.3c3.5,0,6.1-2.2,6.1-7.3v-11h1.4v10.9c0,6.2-3.5,8.5-7.5,8.5
			c-3.7,0-7.1-2.2-7.1-8.4v-11.1H1426.8z"/>
		<path class="st1" d="M1457.7,1031.2h-8.5v8.3h9.5v1.2h-10.9v-19.1h10.4v1.2h-9v7.3h8.5V1031.2z"/>
		<path class="st1" d="M1476.2,1021.6v8.4h12v-8.4h1.4v19.1h-1.4v-9.6h-12v9.6h-1.4v-19.1H1476.2z"/>
		<path class="st1" d="M1515.1,1030.9c0,6.6-4.7,10.1-9.7,10.1c-5.4,0-9.5-4.1-9.5-9.6c0-6,4.3-10.1,9.7-10.1
			C1511.2,1021.2,1515.1,1025.4,1515.1,1030.9z M1497.4,1031.3c0,4.5,3.1,8.6,8.1,8.6c5,0,8.2-3.8,8.2-8.9c0-4.1-2.7-8.6-8.1-8.6
			C1500.1,1022.4,1497.4,1026.6,1497.4,1031.3z"/>
		<path class="st1" d="M1525,1022.7h-7.1v-1.2h15.6v1.2h-7.1v17.9h-1.4V1022.7z"/>
		<path class="st1" d="M1548.1,1031.2h-8.5v8.3h9.5v1.2h-10.9v-19.1h10.4v1.2h-9v7.3h8.5V1031.2z"/>
		<path class="st1" d="M1555.6,1021.6h1.4v17.9h9.5v1.2h-10.9V1021.6z"/>
	</g>
	<polygon class="st1" points="1297.9,1032.5 1072.3,1031.6 1297.9,1030.7 1297.9,1032.5 	"/>
	<path class="st1" d="M1360.4,908.8c10.6-4,20-10.4,26.4-20.3c24.4-39.4,14.6-94.3-1.5-135.3c-2.3-5.9-4.9-11.7-7.7-17.3
		c-9.7,6.5-18.8,14-27.2,22.1c-0.8,0.8-1.6,1.6-2.4,2.3c14.7,22.6,26,47.5,30.7,74.3C1382.5,859.8,1380.8,890.7,1360.4,908.8z"/>
	<path class="st1" d="M1220.3,847.3c3.3,17.9,11.8,34.6,24.6,47.5c6.8,7.2,14.9,11.3,23.6,13.4c-27.3-21.2-31.1-63.7-26.1-96.9
		c1.3-8.5,3.1-16.9,5.2-25.2c-6.2-3.6-12.7-6.9-19.2-9.7C1219.6,798.7,1216,823.7,1220.3,847.3z"/>
	<path class="st1" d="M1378.2,908.2c8.7-2.1,16.7-6.2,23.6-13.4c12.8-12.8,21.3-29.5,24.6-47.5c4.3-23.7,0.7-48.6-8.1-70.9
		c-6.6,2.8-13,6.1-19.2,9.7c2.2,8.3,3.9,16.7,5.2,25.2C1409.2,844.4,1405.4,887,1378.2,908.2z"/>
	<path class="st1" d="M1212.9,811c-3.9-1.4-7.9-2.6-11.8-3.6c-7.9,29.4-6.9,60.7,14.1,84.5c12.5,13.6,29,20.2,46.5,21.6
		c-13.9-5.6-24.3-16.6-32.4-30c-12.9-21.4-15.9-46.6-12.7-71.1C1215.4,812,1214.1,811.5,1212.9,811z"/>
	<path class="st1" d="M1417.3,883.5c-8.1,13.4-18.5,24.4-32.4,30c17.5-1.4,34-8,46.5-21.6c21-23.8,22-55.1,14.1-84.5
		c-4,1-7.9,2.3-11.8,3.6c-1.2,0.4-2.5,0.9-3.7,1.4C1433.3,836.9,1430.2,862.1,1417.3,883.5z"/>
</g>
</svg>
