<svg id="Layer_1" xmlns="http://www.w3.org/2000/svg" version="1.1" viewBox="0 0 1000 295">
  <g>
    <path d="M406.6,161.6c-20.4,0-20.7,22.3-25.6,22.3s-1.8-.9-1.8-2.1.4-3,.4-5.7c0-8-5.6-14.5-17.4-14.5s-17.3,5-21.8,14.3c-2.3,4.7-2.1,8-4.4,8s-1.5-.8-1.5-2c0-3.4,3-6.5,3-13.8s-.2-3.5-.5-4.8h-19.4v75.2h26.3v-40.8c0-8,3.4-13.2,9.3-13.2s7.4,3.4,7.4,9.6v44.3h26.3v-40.8c0-9,4.2-13.2,9.3-13.2s7.4,4,7.4,9.6v44.3h26v-46.2c0-20.2-8-30.7-23.2-30.7Z" fill="#fff"/>
    <rect x="560.6" y="142.2" width="26" height="96.2" fill="#fff"/>
    <path d="M595.1,199.9c0,25.6,16.6,40.3,38,40.3s21.7-4.9,27.5-9.6v-24.8c-5.8,4-14.8,8.6-24.5,8.6s-18.3-5-18.3-13.7,7.3-13.5,17.9-13.5,18.5,3.8,25,8.3v-26.3c-5.5-4.1-15.2-7.7-27.5-7.7-23.1,0-38,14.4-38,38.5Z" fill="#fff"/>
    <path d="M718,161.7c-10.6,0-16.7,4.9-21.2,14-2,4-2.1,8-4.4,8s-1.5-.8-1.5-2c0-4.2,5-10.4,5-28.7s-.5-8.2-1.4-10.7h-22.7v96.1h26.3v-40.5c0-7.6,4-13.4,10.1-13.4s7.7,3.7,7.7,9.6v44.2h26.3v-47.1c0-19.6-8.6-29.6-24.2-29.6Z" fill="#fff"/>
    <path d="M959.5,161.4c-11.6,0-17.6,6.6-20.9,12.8-2.6,4.8-3,9.5-5.3,9.5s-1.7-.7-1.7-2c0-2.3,3-6.2,3-12.6s-.2-4.6-.6-5.9h-19.7v94.4h26.5v-29.7c3.4,7.2,10.4,11.9,20,11.9,17.3,0,29.2-14.3,29.2-39.2s-11-39.2-30.5-39.2ZM952.4,222.6c-5.3,0-11.1-5.5-11.1-19.4s4.8-19.2,11.1-19.2,11.4,7.1,11.4,19.2-4.7,19.4-11.4,19.4Z" fill="#fff"/>
    <path d="M766.4,168.5c-5.5,0-9.9-.8-13.1-2.4v72.3h26v-72.3c-3.4,1.5-7.4,2.4-12.9,2.4Z" fill="#fff"/>
    <path d="M766.3,141.7c-10.8,0-16.4,4.8-16.4,10.2s6.7,10.2,16.4,10.2,16.4-4.3,16.4-10.2-5.6-10.2-16.4-10.2Z" fill="#fff"/>
    <path d="M476.8,161.4c-13.6,0-26,3.4-34.7,7.7v21.8c10.1-5.4,20.4-9.5,29.4-9.5s13.8,5.1,13.2,11.8c-3.9-.4-8.3-.6-13.5-.6-20.6,0-33.5,8-33.5,25.5s11.2,21.8,23.4,21.8,20.2-5.7,24.9-14.3c2.7-4.9,2.5-7.9,4.2-7.9s1.5.6,1.5,1.6c0,3.1-.9,5-.9,9.2s.5,7.3,1.4,9.8h18.9v-40.2c0-22.9-10.5-36.6-34.4-36.6ZM467.9,221.5c-4.9,0-7.5-2.1-7.5-5.9s4.6-8.6,16.4-8.6,5,0,7.1.3c-1,6.9-7.1,14.2-16,14.2Z" fill="#fff"/>
    <path d="M570.6,92.4v-42.2h-18.1v40c0,9.9-6.6,16.6-15.4,16.6s-15.4-6.6-15.4-16.6v-40h-18.1v42.2c.1,18.4,14.8,31.8,33.5,31.8s33.4-13.4,33.4-31.8Z" fill="#fff"/>
    <polygon points="640.5 122.7 658.6 122.7 658.6 67.1 680.2 67.1 680.2 50.2 618.9 50.2 618.9 67.1 640.5 67.1 640.5 122.7" fill="#fff"/>
    <rect x="589.2" y="50.2" width="18.1" height="72.5" fill="#fff"/>
    <polygon points="452.3 122.7 470.4 122.7 470.4 67.1 492 67.1 492 50.2 430.7 50.2 430.7 67.1 452.3 67.1 452.3 122.7" fill="#fff"/>
    <polygon points="335.8 86.5 335.8 50.2 317.7 50.2 317.7 122.7 335.8 122.7 335.8 86.5" fill="#fff"/>
    <path d="M372.4,82.7c0-9.9,6.6-16.6,15.4-16.6s15.4,6.6,15.4,16.6v40h18.1v-42.2c0-18.4-14.8-31.8-33.5-31.8s-33.4,13.4-33.4,31.8v42.2h18.1v-40Z" fill="#fff"/>
    <path d="M880.2,161.6c-20.4,0-20.7,22.3-25.6,22.3s-1.8-.9-1.8-2.1.4-3,.4-5.7c0-8-5.6-14.5-17.4-14.5s-17.3,5-21.8,14.3c-2.3,4.7-2.1,8-4.4,8s-1.5-.8-1.5-2c0-3.4,3-6.5,3-13.8s-.2-3.5-.5-4.8h-19.4v75.2h26.3v-40.8c0-8,3.4-13.2,9.3-13.2s7.4,3.4,7.4,9.6v44.3h26.3v-40.8c0-9,4.2-13.2,9.3-13.2s7.4,4,7.4,9.6v44.3h26v-46.2c0-20.2-8-30.7-23.2-30.7Z" fill="#fff"/>
    <path d="M535.9,168.5c-5.5,0-9.9-.8-13.1-2.4v72.3h26v-72.3c-3.4,1.5-7.4,2.4-12.9,2.4Z" fill="#fff"/>
    <path d="M535.7,141.7c-10.8,0-16.4,4.8-16.4,10.2s6.7,10.2,16.4,10.2,16.4-4.3,16.4-10.2-5.6-10.2-16.4-10.2Z" fill="#fff"/>
  </g>
  <g>
    <path d="M68.3,152.7c-2.2-.1-4.2,0-5.9.4-14,2.8-21.8,14.7-20.3,30.1,1.4,14,15.5,25.7,28.6,26.1,1.4,0,2.7,0,4-.3,14.2-2.4,17.9-17.8,15.5-32.9-2.6-17-14.2-23-22-23.5ZM82.1,193.1c-.5,1.2-2.6,2.9-5.5,2.7-3-.2-6.4-2.4-6.9-7.9-.2-2.7.8-6,1.4-7.7,1.2-3.3.1-6.8-2.7-8.7-1.7-1.1-3.7-1.5-5.6-1.1-1.9.4-3.6,1.5-4.6,3.2-.9,1.4-1.4,3.1-1.7,4,0,.2-.1.4-.2.6-.6,1.7-1.7,2.2-2.4,2.1-.3,0-.8-.3-1.1-1.1-.8-2.2-.2-8.3,3.9-12.7,2.6-2.8,6.6-4.3,10.5-3.8,4.1.5,7.5,3,9.6,7,2.8,5.3.3,10.8-1.2,14.1-.2.4-.3.7-.4,1-.9,2.2-1,4.1-.1,5.4.6,1,1.8,1.6,3.1,1.6.6,0,1.2-.1,1.7-.2.7-.2,1.5-.3,1.9.2.2.2.4.6.1,1.3Z" fill="#fff"/>
    <path d="M265,179.4c-1.6-2-3.6-3.6-5.8-4.8-.2-.6-.4-1.2-.6-1.9-.2-.7-.5-1.4-.7-2.1,3.3-7.1,3.1-13.2,2.5-16.6-.9-5.7-3.3-10.5-7.7-15.1-5.3-5.6-14.2-9.2-21.2-11.3,0-3.4-.2-7.2-.3-9.5-.1-3.1-.4-9.7-2.5-16.3-1.5-5.4-3.8-10.4-6.5-14.6,10.7-12.8,16.5-26.1,16.5-37.9,0-19.2-14.9-31.5-38-31.5s-23.4,2.8-36.1,8c0,0-.7.3-1.7.7-3.9-3.8-8.9-8.8-9.3-9.1-5.8-5.1-13-7.6-21.4-7.6s-21.5,3.7-34.2,11c-10.9,6.3-22.7,15.3-33.9,26.1-23,21.9-41.6,48.2-49.6,70.2-3.5,9.5-4.9,18.1-4.4,25.5.6,9.1,4.3,16.7,10.6,22l3.9,3.3c-1.2,5.4-1.6,11.1-1,17,1.1,11.3,6.8,22,16.1,30.2,7.4,6.6,16.5,10.9,25.7,12.2,8.2,16.4,20.8,30.2,36.6,40.2,17,10.8,37.4,16.8,59,17.4,1.4,0,2.8,0,4.1,0h0c22.2,0,43.1-5.5,60.2-15.8,17.7-10.7,31.2-26.3,39.1-45.3,0,0,0-.1,0-.2,1.4-3.5,5.8-15.9,5.8-27.6s-2.9-13.8-5.4-16.8ZM256.2,220.5c-15.2,36.5-51.6,56.8-94.9,55.5-40.4-1.2-74.8-22.5-89.9-57.2-9.1,0-18.5-4-25.6-10.3-7.5-6.7-12.2-15.3-13.1-24.3-.7-7,.2-13.5,2.4-19.2l-8.5-7.2C-12.1,125.1,109-9.5,147.7,24.3c.2.2,13.2,12.9,13.2,12.9,0,0,7.2-3,7.2-3.1,34-14.1,61.5-7.3,61.6,15.2,0,11.7-7.4,25.3-19.3,37.6,4.3,4,7.8,10.3,9.8,17.4,1.7,5.3,2,10.7,2.1,14.1.2,4.8.4,15.8.5,16,.3,0,3.7,1,4.8,1.3,9.1,2.6,15.6,6,18.8,9.3,3.2,3.3,4.7,6.6,5.3,10.3.5,3,.5,8.4-3.6,14.5,0,0,1,2.3,2,5.5,1,3.2,1.7,5.9,1.8,6.3,3.7,0,9.5,4.2,9.5,14.5s-4.2,21.7-5.2,24.3Z" fill="#fff"/>
    <path d="M250.1,190.1c-2-1.2-4.3-.8-4.3-.8,0,0-1.1-7.3-4.1-13.9-8.9,7.1-20.5,12-29.2,14.5-10.1,2.9-23.8,5.1-39.1,4.2-8.5-.7-14.1-3.2-16.2,3.7,19.4,7.1,39.8,4.1,39.8,4.1.4,0,.8.2.8.6,0,.3-.2.6-.4.8,0,0-15.7,7.3-40.7-.4.7,5.9,6.4,8.5,9.1,9.6,3.4,1.3,7.2,2,7.2,2,31,5.3,59.9-12.4,66.4-16.8.5-.3.8,0,.4.6-.4.6-.4.6-.6.9-8,10.3-29.4,22.2-57.3,22.2-12.2,0-24.3-4.3-28.8-10.9-6.9-10.2-.3-25.1,11.2-23.6,0,0,3.9.4,5.1.6,14.4,1.6,35.3-.4,52.5-8.4,15.8-7.3,21.7-15.4,20.8-21.9-.2-1.8-1-3.6-2.7-5.3-2.8-2.8-7.3-4.9-14.9-7.1-2.5-.7-4.2-1.2-6-1.8-3.3-1.1-4.9-1.9-5.2-8-.2-2.7-.6-12-.8-15.8-.3-6.7-1.1-16-6.8-19.8-1.5-1-3.1-1.5-4.9-1.6-1.7,0-2.6.2-2.9.3-3.3.6-5.2,2.3-7.6,4.3-7.1,5.9-13.2,6.9-19.9,6.6-4-.2-8.2-.8-13.1-1.1-.9,0-1.9-.1-2.8-.2-11.2-.6-23.3,9.1-25.3,22.9-2.8,19.2,11.1,29.1,15.1,34.9.5.7,1.1,1.7,1.1,2.6s-.7,2-1.4,2.7c0,0,0,0,0,0-11.4,11.8-15.1,30.5-10.8,46.1.5,1.9,1.2,3.8,2,5.6,10.1,23.7,41.5,34.7,72.2,24.7,4.1-1.3,8-3,11.7-4.9,6.9-3.4,12.9-8,17.8-13.3,8.1-8.5,13-17.8,14.9-29.1.9-6.1-.4-8.5-2.3-9.6ZM208.8,150.9c0,2.5-1.6,4.5-3.4,4.5-1.8,0-3.3-2.1-3.3-4.6,0-2.5,1.6-4.5,3.4-4.5,1.8,0,3.3,2.1,3.3,4.6ZM200.3,121.1c3.6-.6,5.3,3.1,6.6,9.2.9,4.1.7,7.9-.3,10.1-1.7-.2-3.5-.2-5.3,0-1.4-1.8-2.7-4.8-3.4-8.2-1.3-6.1-1.1-10.6,2.4-11.1ZM188.3,154c.8-1.7,3.3-2.1,5.6-1,2.3,1.1,3.4,3.4,2.6,5-.8,1.7-3.3,2.1-5.6,1-2.3-1.1-3.4-3.4-2.6-5ZM174.3,152.1c-.4.6-1.2.5-2.8.3-3-.3-6.1-.5-10.7,1.1,0,0-1.7.7-2.4.7s-.4,0-.5-.2c-.1,0-.3-.3-.3-.6,0-.7.6-1.7,1.6-2.5,1.2-1,3-2.1,6.4-2.6,4.6-.5,8,1.6,8.7,2.9.3.5.2.9,0,1.1ZM148.7,145.8c-.6,0-.9-.3-.9-.7-.2-1.1,1.4-2.8,3.1-4,5.2-3.7,11.9-4.5,17.5-2.1,2.8,1.2,5.4,3.3,6.6,5.3.6,1,.7,1.8.3,2.2-.6.7-2.2,0-4.7-1.2s-5.9-2.4-9.9-2.1c-5.7.3-10.6,2.8-12,2.7Z" fill="#fff"/>
    <path d="M187.7,76.4c.5.1.8-.7.4-1-6.5-3.6-16.4-6.1-23.5-6.2-.3,0-.5-.4-.3-.7,1.2-1.6,2.9-3.3,4.4-4.4.3-.3.1-.8-.3-.8-10,.6-21.5,5.4-28.1,9.9-.3.2-.7,0-.7-.5.5-2.5,2.1-5.7,3-7.3.2-.4-.2-.8-.6-.6-10.6,5.4-22.4,15.1-32,26.2-.3.4.2.9.6.6,8.3-6,19.7-11.6,34.5-15.3,16.7-4.1,32.7-2.4,42.5-.1Z" fill="#fff"/>
    <path d="M151.8,42s-10.5-12.2-13.7-13.1c-19.6-5.3-61.9,23.9-88.9,62.4-10.9,15.6-26.6,43.2-19.1,57.4.9,1.8,6.1,6.3,8.9,8.6,4.7-6.8,12.3-11.7,21-13.4,11.1-29.7,29.5-57.1,54-75.9,18.1-15.1,37.7-26,37.7-26Z" fill="#fff"/>
  </g>
</svg>